<?xml version="1.0" standalone="yes"?>

<svg version="1.1" viewBox="0.0 0.0 737.007874015748 720.0" fill="none" stroke="none" stroke-linecap="square" stroke-miterlimit="10" xmlns="http://www.w3.org/2000/svg" xmlns:xlink="http://www.w3.org/1999/xlink"><clipPath id="p.0"><path d="m0 0l737.0079 0l0 720.0l-737.0079 0l0 -720.0z" clip-rule="nonzero"></path></clipPath><g clip-path="url(#p.0)"><path fill="#000000" fill-opacity="0.0" d="m0 0l737.0079 0l0 720.0l-737.0079 0z" fill-rule="evenodd"></path><path fill="#000000" fill-opacity="0.0" d="m38.707973 675.10236l0 -630.2047" fill-rule="evenodd"></path><path stroke="#000000" stroke-width="1.0" stroke-linejoin="round" stroke-linecap="butt" d="m38.707973 675.10236l0 -624.2047" fill-rule="evenodd"></path><path fill="#000000" stroke="#000000" stroke-width="1.0" stroke-linecap="butt" d="m40.359707 50.897636l-1.6517334 -4.5380974l-1.6517296 4.5380974z" fill-rule="evenodd"></path><path fill="#000000" fill-opacity="0.0" d="m39.44951 674.3632l652.3779 0" fill-rule="evenodd"></path><path stroke="#000000" stroke-width="1.0" stroke-linejoin="round" stroke-linecap="butt" d="m39.449505 674.3632l646.3779 0" fill-rule="evenodd"></path><path fill="#000000" stroke="#000000" stroke-width="1.0" stroke-linecap="butt" d="m685.82745 676.01495l4.538086 -1.6517334l-4.538086 -1.6517334z" fill-rule="evenodd"></path><path fill="#000000" fill-opacity="0.0" d="m243.1181 664.9895l250.77167 0l0 39.653564l-250.77167 0z" fill-rule="evenodd"></path><path fill="#000000" d="m267.55188 681.8769l3.84375 0q1.421875 0 2.109375 0.25q0.6875 0.234375 1.1875 0.859375q0.5 0.625 0.5 1.515625q0 0.703125 -0.296875 1.234375q-0.28125 0.515625 -0.875 0.875q0.703125 0.21875 1.15625 0.859375q0.46875 0.640625 0.46875 1.515625q-0.09375 1.390625 -1.015625 2.078125q-0.90625 0.671875 -2.640625 0.671875l-4.4375 0l0 -9.859375zm1.671875 4.15625l1.78125 0q1.0625 0 1.453125 -0.109375q0.40625 -0.109375 0.71875 -0.453125q0.3125 -0.34375 0.3125 -0.8125q0 -0.78125 -0.546875 -1.078125q-0.546875 -0.3125 -1.890625 -0.3125l-1.828125 0l0 2.765625zm0 4.328125l2.1875 0q1.421875 0 1.953125 -0.328125q0.53125 -0.328125 0.5625 -1.140625q0 -0.46875 -0.3125 -0.875q-0.3125 -0.40625 -0.796875 -0.5q-0.484375 -0.109375 -1.578125 -0.109375l-2.015625 0l0 2.953125zm14.973633 -1.796875l1.71875 0.21875q-0.40625 1.5 -1.515625 2.34375q-1.09375 0.828125 -2.8125 0.828125q-2.15625 0 -3.421875 -1.328125q-1.265625 -1.328125 -1.265625 -3.734375q0 -2.484375 1.265625 -3.859375q1.28125 -1.375 3.328125 -1.375q1.984375 0 3.234375 1.34375q1.25 1.34375 1.25 3.796875q0 0.140625 -0.015625 0.4375l-7.34375 0q0.09375 1.625 0.921875 2.484375q0.828125 0.859375 2.0625 0.859375q0.90625 0 1.546875 -0.46875q0.65625 -0.484375 1.046875 -1.546875zm-5.484375 -2.703125l5.5 0q-0.109375 -1.234375 -0.625 -1.859375q-0.796875 -0.96875 -2.078125 -0.96875q-1.140625 0 -1.9375 0.78125q-0.78125 0.765625 -0.859375 2.046875zm9.110107 9.65625l0 -13.640625l1.53125 0l0 1.28125q0.53125 -0.75 1.203125 -1.125q0.6875 -0.375 1.640625 -0.375q1.265625 0 2.234375 0.65625q0.96875 0.640625 1.453125 1.828125q0.5 1.1875 0.5 2.59375q0 1.515625 -0.546875 2.734375q-0.546875 1.203125 -1.578125 1.84375q-1.03125 0.640625 -2.171875 0.640625q-0.84375 0 -1.515625 -0.34375q-0.65625 -0.359375 -1.078125 -0.890625l0 4.796875l-1.671875 0zm1.515625 -8.65625q0 1.90625 0.765625 2.8125q0.78125 0.90625 1.875 0.90625q1.109375 0 1.890625 -0.9375q0.796875 -0.9375 0.796875 -2.921875q0 -1.875 -0.78125 -2.8125q-0.765625 -0.9375 -1.84375 -0.9375q-1.0625 0 -1.890625 1.0q-0.8125 1.0 -0.8125 2.890625zm8.235077 -0.046875q0 -2.734375 1.53125 -4.0625q1.265625 -1.09375 3.09375 -1.09375q2.03125 0 3.3125 1.34375q1.296875 1.328125 1.296875 3.671875q0 1.90625 -0.578125 3.0q-0.5625 1.078125 -1.65625 1.6875q-1.078125 0.59375 -2.375 0.59375q-2.0625 0 -3.34375 -1.328125q-1.28125 -1.328125 -1.28125 -3.8125zm1.71875 0q0 1.890625 0.828125 2.828125q0.828125 0.9375 2.078125 0.9375q1.25 0 2.0625 -0.9375q0.828125 -0.953125 0.828125 -2.890625q0 -1.828125 -0.828125 -2.765625q-0.828125 -0.9375 -2.0625 -0.9375q-1.25 0 -2.078125 0.9375q-0.828125 0.9375 -0.828125 2.828125zm17.047607 -4.9375l0 9.859375l-1.671875 0l0 -3.84375l-0.953125 0q-0.890625 0 -1.328125 0.234375q-0.421875 0.21875 -1.25 1.453125l-1.453125 2.15625l-2.078125 0l1.8125 -2.65625q0.8125 -1.21875 1.640625 -1.375q-1.4375 -0.1875 -2.125 -1.015625q-0.6875 -0.84375 -0.6875 -1.9375q0 -1.265625 0.90625 -2.0625q0.90625 -0.8125 2.609375 -0.8125l4.578125 0zm-1.671875 1.390625l-2.375 0q-1.484375 0 -1.921875 0.46875q-0.4375 0.453125 -0.4375 1.078125q0 0.875 0.640625 1.296875q0.640625 0.40625 2.25 0.40625l1.84375 0l0 -3.25zm3.118042 -1.390625l8.0 0l0 1.390625l-3.171875 0l0 8.46875l-1.65625 0l0 -8.46875l-3.171875 0l0 -1.390625zm9.450958 0l1.671875 0l0 4.109375l4.625 0l0 -4.109375l1.671875 0l0 9.859375l-1.671875 0l0 -4.375l-4.625 0l0 4.375l-1.671875 0l0 -9.859375zm9.662231 4.9375q0 -2.734375 1.53125 -4.0625q1.265625 -1.09375 3.09375 -1.09375q2.03125 0 3.3125 1.34375q1.296875 1.328125 1.296875 3.671875q0 1.90625 -0.578125 3.0q-0.5625 1.078125 -1.65625 1.6875q-1.078125 0.59375 -2.375 0.59375q-2.0625 0 -3.34375 -1.328125q-1.28125 -1.328125 -1.28125 -3.8125zm1.71875 0q0 1.890625 0.828125 2.828125q0.828125 0.9375 2.078125 0.9375q1.25 0 2.0625 -0.9375q0.828125 -0.953125 0.828125 -2.890625q0 -1.828125 -0.828125 -2.765625q-0.828125 -0.9375 -2.0625 -0.9375q-1.25 0 -2.078125 0.9375q-0.828125 0.9375 -0.828125 2.828125zm15.719452 1.3125l1.640625 0.21875q-0.265625 1.6875 -1.375 2.65625q-1.109375 0.953125 -2.734375 0.953125q-2.015625 0 -3.25 -1.3125q-1.21875 -1.328125 -1.21875 -3.796875q0 -1.59375 0.515625 -2.78125q0.53125 -1.203125 1.609375 -1.796875q1.09375 -0.609375 2.359375 -0.609375q1.609375 0 2.625 0.8125q1.015625 0.8125 1.3125 2.3125l-1.625 0.25q-0.234375 -1.0 -0.828125 -1.5q-0.59375 -0.5 -1.421875 -0.5q-1.265625 0 -2.0625 0.90625q-0.78125 0.90625 -0.78125 2.859375q0 1.984375 0.765625 2.890625q0.765625 0.890625 1.984375 0.890625q0.984375 0 1.640625 -0.59375q0.65625 -0.609375 0.84375 -1.859375zm2.0 -6.25l8.0 0l0 1.390625l-3.171875 0l0 8.46875l-1.65625 0l0 -8.46875l-3.171875 0l0 -1.390625zm15.931152 0l6.875 0l0 8.484375l1.0625 0l0 4.171875l-1.375 0l0 -2.796875l-7.75 0l0 2.796875l-1.375 0l0 -4.171875l0.875 0q1.765625 -2.390625 1.6875 -8.484375zm1.40625 1.390625q-0.1875 4.796875 -1.484375 7.09375l5.296875 0l0 -7.09375l-3.8125 0zm14.604584 7.25q-0.9375 0.796875 -1.796875 1.125q-0.859375 0.3125 -1.84375 0.3125q-1.609375 0 -2.484375 -0.78125q-0.875 -0.796875 -0.875 -2.03125q0 -0.734375 0.328125 -1.328125q0.328125 -0.59375 0.859375 -0.953125q0.53125 -0.359375 1.203125 -0.546875q0.5 -0.140625 1.484375 -0.25q2.03125 -0.25 2.984375 -0.578125q0 -0.34375 0 -0.4375q0 -1.015625 -0.46875 -1.4375q-0.640625 -0.5625 -1.90625 -0.5625q-1.171875 0 -1.734375 0.40625q-0.5625 0.40625 -0.828125 1.46875l-1.640625 -0.234375q0.234375 -1.046875 0.734375 -1.6875q0.515625 -0.640625 1.46875 -0.984375q0.96875 -0.359375 2.25 -0.359375q1.265625 0 2.046875 0.296875q0.78125 0.296875 1.15625 0.75q0.375 0.453125 0.515625 1.140625q0.09375 0.421875 0.09375 1.53125l0 2.234375q0 2.328125 0.09375 2.953125q0.109375 0.609375 0.4375 1.171875l-1.75 0q-0.265625 -0.515625 -0.328125 -1.21875zm-0.140625 -3.71875q-0.90625 0.359375 -2.734375 0.625q-1.03125 0.140625 -1.453125 0.328125q-0.421875 0.1875 -0.65625 0.546875q-0.234375 0.359375 -0.234375 0.796875q0 0.671875 0.5 1.125q0.515625 0.4375 1.484375 0.4375q0.96875 0 1.71875 -0.421875q0.75 -0.4375 1.109375 -1.15625q0.265625 -0.578125 0.265625 -1.671875l0 -0.609375zm15.699646 1.328125l1.640625 0.21875q-0.265625 1.6875 -1.375 2.65625q-1.109375 0.953125 -2.734375 0.953125q-2.015625 0 -3.25 -1.3125q-1.21875 -1.328125 -1.21875 -3.796875q0 -1.59375 0.515625 -2.78125q0.53125 -1.203125 1.609375 -1.796875q1.09375 -0.609375 2.359375 -0.609375q1.609375 0 2.625 0.8125q1.015625 0.8125 1.3125 2.3125l-1.625 0.25q-0.234375 -1.0 -0.828125 -1.5q-0.59375 -0.5 -1.421875 -0.5q-1.265625 0 -2.0625 0.90625q-0.78125 0.90625 -0.78125 2.859375q0 1.984375 0.765625 2.890625q0.765625 0.890625 1.984375 0.890625q0.984375 0 1.640625 -0.59375q0.65625 -0.609375 0.84375 -1.859375zm9.640625 0.4375l1.71875 0.21875q-0.40625 1.5 -1.515625 2.34375q-1.09375 0.828125 -2.8125 0.828125q-2.15625 0 -3.421875 -1.328125q-1.265625 -1.328125 -1.265625 -3.734375q0 -2.484375 1.265625 -3.859375q1.28125 -1.375 3.328125 -1.375q1.984375 0 3.234375 1.34375q1.25 1.34375 1.25 3.796875q0 0.140625 -0.015625 0.4375l-7.34375 0q0.09375 1.625 0.921875 2.484375q0.828125 0.859375 2.0625 0.859375q0.90625 0 1.546875 -0.46875q0.65625 -0.484375 1.046875 -1.546875zm-5.484375 -2.703125l5.5 0q-0.109375 -1.234375 -0.625 -1.859375q-0.796875 -0.96875 -2.078125 -0.96875q-1.140625 0 -1.9375 0.78125q-0.78125 0.765625 -0.859375 2.046875zm20.730896 2.265625l1.640625 0.21875q-0.265625 1.6875 -1.375 2.65625q-1.109375 0.953125 -2.734375 0.953125q-2.015625 0 -3.25 -1.3125q-1.21875 -1.328125 -1.21875 -3.796875q0 -1.59375 0.515625 -2.78125q0.53125 -1.203125 1.609375 -1.796875q1.09375 -0.609375 2.359375 -0.609375q1.609375 0 2.625 0.8125q1.015625 0.8125 1.3125 2.3125l-1.625 0.25q-0.234375 -1.0 -0.828125 -1.5q-0.59375 -0.5 -1.421875 -0.5q-1.265625 0 -2.0625 0.90625q-0.78125 0.90625 -0.78125 2.859375q0 1.984375 0.765625 2.890625q0.765625 0.890625 1.984375 0.890625q0.984375 0 1.640625 -0.59375q0.65625 -0.609375 0.84375 -1.859375zm3.703125 -6.25l7.765625 0l0 9.859375l-1.65625 0l0 -8.46875l-4.4375 0l0 4.90625q0 1.71875 -0.109375 2.265625q-0.109375 0.546875 -0.609375 0.953125q-0.5 0.40625 -1.453125 0.40625q-0.578125 0 -1.34375 -0.078125l0 -1.390625l0.734375 0q0.515625 0 0.734375 -0.09375q0.234375 -0.109375 0.296875 -0.34375q0.078125 -0.234375 0.078125 -1.515625l0 -6.5zm9.995239 13.65625l-0.171875 -1.5625q0.546875 0.140625 0.953125 0.140625q0.546875 0 0.875 -0.1875q0.34375 -0.1875 0.5625 -0.515625q0.15625 -0.25 0.5 -1.25q0.046875 -0.140625 0.15625 -0.40625l-3.734375 -9.875l1.796875 0l2.046875 5.71875q0.40625 1.078125 0.71875 2.28125q0.28125 -1.15625 0.6875 -2.25l2.09375 -5.75l1.671875 0l-3.75 10.03125q-0.59375 1.625 -0.9375 2.234375q-0.4375 0.828125 -1.015625 1.203125q-0.578125 0.390625 -1.375 0.390625q-0.484375 0 -1.078125 -0.203125zm8.796875 -13.65625l1.671875 0l0 1.875q0 1.203125 0.140625 1.75q0.140625 0.53125 0.6875 0.9375q0.546875 0.40625 1.375 0.40625q0.953125 0 2.453125 -0.5l0 -4.46875l1.671875 0l0 9.859375l-1.671875 0l0 -3.96875q-1.546875 0.484375 -2.875 0.484375q-1.125 0 -1.984375 -0.5625q-0.859375 -0.578125 -1.171875 -1.40625q-0.296875 -0.828125 -0.296875 -1.828125l0 -2.578125zm10.329193 0l1.671875 0l0 7.515625l4.625 -7.515625l1.8125 0l0 9.859375l-1.671875 0l0 -7.46875l-4.640625 7.46875l-1.796875 0l0 -9.859375z" fill-rule="nonzero"></path><path fill="#000000" fill-opacity="0.0" d="m4.7244096 580.8504l0 -441.7008l33.98425 0l0 441.7008z" fill-rule="evenodd"></path><path fill="#000000" d="m18.777159 535.07605l0 -1.671875l4.109375 0l0 -4.625l-4.109375 0l0 -1.671875l9.859375 0l0 1.671875l-4.375 0l0 4.625l4.375 0l0 1.671875l-9.859375 0zm6.6875 -17.037231l0.21875 -1.71875q1.5 0.40625 2.34375 1.515625q0.828125 1.09375 0.828125 2.8125q0 2.15625 -1.328125 3.421875q-1.328125 1.265625 -3.734375 1.265625q-2.484375 0 -3.859375 -1.265625q-1.375 -1.28125 -1.375 -3.328125q0 -1.984375 1.34375 -3.234375q1.34375 -1.25 3.796875 -1.25q0.140625 0 0.4375 0.015625l0 7.34375q1.625 -0.09375 2.484375 -0.921875q0.859375 -0.828125 0.859375 -2.0625q0 -0.90625 -0.46875 -1.546875q-0.484375 -0.65625 -1.546875 -1.046875zm-2.703125 5.484375l0 -5.5q-1.234375 0.109375 -1.859375 0.625q-0.96875 0.796875 -0.96875 2.078125q0 1.140625 0.78125 1.9375q0.765625 0.78125 2.046875 0.859375zm0.953125 -8.485046q-2.734375 0 -4.0625 -1.53125q-1.09375 -1.265625 -1.09375 -3.0937805q0 -2.03125 1.34375 -3.3125q1.328125 -1.296875 3.671875 -1.296875q1.90625 0 3.0 0.578125q1.078125 0.5625 1.6875 1.65625q0.59375 1.078125 0.59375 2.375q0 2.0625305 -1.328125 3.3437805q-1.328125 1.28125 -3.8125 1.28125zm0 -1.71875q1.890625 0 2.828125 -0.828125q0.9375 -0.8281555 0.9375 -2.0781555q0 -1.25 -0.9375 -2.0625q-0.953125 -0.828125 -2.890625 -0.828125q-1.828125 0 -2.765625 0.828125q-0.9375 0.828125 -0.9375 2.0625q0 1.25 0.9375 2.0781555q0.9375 0.828125 2.828125 0.828125zm-9.0 -16.500732l0.015625 -1.484375q0.984375 0.109375 1.375 0.453125q0.390625 0.328125 0.515625 0.875q0.109375 0.53125 0.109375 2.078125q0 2.078125 0.40625 2.828125q0.390625 0.75 1.265625 1.078125q0.875 0.328125 2.25 0.375q-0.9375 -0.640625 -1.40625 -1.484375q-0.46875 -0.84375 -0.46875 -1.90625q0 -1.9375 1.34375 -3.203125q1.328125 -1.265625 3.59375 -1.265625q1.734375 0 2.84375 0.640625q1.09375 0.640625 1.703125 1.515625q0.59375 0.875 0.59375 2.390625q0 1.75 -0.796875 2.71875q-0.796875 0.96875 -2.046875 1.5q-1.265625 0.515625 -4.375 0.515625q-3.90625 0 -5.25 -1.3125q-1.359375 -1.328125 -1.359375 -4.078125q0 -1.703125 -0.046875 -1.9375q-0.0625 -0.234375 -0.265625 -0.296875zm8.953125 0.078125q-1.53125 0 -2.515625 0.734375q-0.984375 0.71875 -0.984375 2.046875q0 1.390625 1.046875 2.140625q1.03125 0.75 2.765625 0.75q1.71875 0 2.625 -0.828125q0.90625 -0.828125 0.90625 -2.046875q0 -1.25 -1.046875 -2.015625q-1.0625 -0.78125 -2.796875 -0.78125zm4.96875 -2.4354553l-5.125 -3.59375l-4.734375 3.328125l0 -2.09375l2.3125 -1.515625q0.65625 -0.421875 1.109375 -0.671875q-0.609375 -0.421875 -1.09375 -0.765625l-2.328125 -1.65625l0 -1.984375l4.640625 3.390625l5.21875 -3.65625l0 2.046875l-3.0625 2.03125l-0.828125 0.53125l3.890625 2.59375l0 2.015625zm-4.921875 -9.8125q-2.734375 0 -4.0625 -1.53125q-1.09375 -1.265625 -1.09375 -3.09375q0 -2.03125 1.34375 -3.3125q1.328125 -1.296875 3.671875 -1.296875q1.90625 0 3.0 0.578125q1.078125 0.5625 1.6875 1.65625q0.59375 1.078125 0.59375 2.375q0 2.0625 -1.328125 3.34375q-1.328125 1.28125 -3.8125 1.28125zm0 -1.71875q1.890625 0 2.828125 -0.828125q0.9375 -0.828125 0.9375 -2.078125q0 -1.25 -0.9375 -2.0625q-0.953125 -0.828125 -2.890625 -0.828125q-1.828125 0 -2.765625 0.828125q-0.9375 0.828125 -0.9375 2.0625q0 1.25 0.9375 2.078125q0.9375 0.828125 2.828125 0.828125zm-4.9375 -10.594452l0 -6.875l8.484375 0l0 -1.0625l4.171875 0l0 1.375l-2.796875 0l0 7.75l2.796875 0l0 1.375l-4.171875 0l0 -0.875q-2.390625 -1.765625 -8.484375 -1.6875zm1.390625 -1.40625q4.796875 0.1875 7.09375 1.484375l0 -5.296875l-7.09375 0l0 3.8125zm-1.390625 -8.167114l0 -1.671875l7.515625 0l-7.515625 -4.625l0 -1.8125l9.859375 0l0 1.671875l-7.46875 0l7.46875 4.640625l0 1.796875l-9.859375 0zm0 -10.46814l0 -2.59375l7.890625 -2.59375l-7.890625 -2.875l0 -2.40625l9.859375 0l0 1.671875l-7.9375 0l7.9375 2.90625l0 1.5l-8.3125 2.75l8.3125 0l0 1.640625l-9.859375 0zm8.640625 -19.216797q0.796875 0.9375 1.125 1.796875q0.3125 0.859375 0.3125 1.84375q0 1.609375 -0.78125 2.484375q-0.796875 0.875 -2.03125 0.875q-0.734375 0 -1.328125 -0.328125q-0.59375 -0.328125 -0.953125 -0.859375q-0.359375 -0.53125 -0.546875 -1.203125q-0.140625 -0.5 -0.25 -1.484375q-0.25 -2.03125 -0.578125 -2.984375q-0.34375 0 -0.4375 0q-1.015625 0 -1.4375 0.46875q-0.5625 0.640625 -0.5625 1.90625q0 1.171875 0.40625 1.734375q0.40625 0.5625 1.46875 0.828125l-0.234375 1.640625q-1.046875 -0.234375 -1.6875 -0.734375q-0.640625 -0.515625 -0.984375 -1.46875q-0.359375 -0.96875 -0.359375 -2.25q0 -1.265625 0.296875 -2.046875q0.296875 -0.78125 0.75 -1.15625q0.453125 -0.375 1.140625 -0.515625q0.421875 -0.09375 1.53125 -0.09375l2.234375 0q2.328125 0 2.953125 -0.09375q0.609375 -0.109375 1.171875 -0.4375l0 1.75q-0.515625 0.265625 -1.21875 0.328125zm-3.71875 0.140625q0.359375 0.90625 0.625 2.734375q0.140625 1.03125 0.328125 1.453125q0.1875 0.421875 0.546875 0.65625q0.359375 0.234375 0.796875 0.234375q0.671875 0 1.125 -0.5q0.4375 -0.515625 0.4375 -1.484375q0 -0.96875 -0.421875 -1.71875q-0.4375 -0.75 -1.15625 -1.109375q-0.578125 -0.265625 -1.671875 -0.265625l-0.609375 0zm-4.921875 -9.262146l0 -1.671875l7.515625 0l-7.515625 -4.625l0 -1.8125l9.859375 0l0 1.671875l-7.46875 0l7.46875 4.640625l0 1.796875l-9.859375 0zm0 -10.43689l0 -1.671875l4.109375 0l0 -4.625l-4.109375 0l0 -1.671875l9.859375 0l0 1.671875l-4.375 0l0 4.625l4.375 0l0 1.671875l-9.859375 0zm0 -10.302826l0 -3.84375q0 -1.421875 0.25 -2.109375q0.234375 -0.6875 0.859375 -1.1875q0.625 -0.5 1.515625 -0.5q0.703125 0 1.234375 0.296875q0.515625 0.28125 0.875 0.875q0.21875 -0.703125 0.859375 -1.15625q0.640625 -0.46875 1.515625 -0.46875q1.390625 0.09375 2.078125 1.015625q0.671875 0.90625 0.671875 2.640625l0 4.4375l-9.859375 0zm4.15625 -1.671875l0 -1.78125q0 -1.0625 -0.109375 -1.453125q-0.109375 -0.40625 -0.453125 -0.71875q-0.34375 -0.3125 -0.8125 -0.3125q-0.78125 0 -1.078125 0.546875q-0.3125 0.546875 -0.3125 1.890625l0 1.828125l2.765625 0zm4.328125 0l0 -2.1875q0 -1.421875 -0.328125 -1.953125q-0.328125 -0.53125 -1.140625 -0.5625q-0.46875 0 -0.875 0.3125q-0.40625 0.3125 -0.5 0.796875q-0.109375 0.484375 -0.109375 1.578125l0 2.015625l2.953125 0zm-1.796875 -14.973633l0.21875 -1.71875q1.5 0.40625 2.34375 1.515625q0.828125 1.09375 0.828125 2.8125q0 2.15625 -1.328125 3.421875q-1.328125 1.265625 -3.734375 1.265625q-2.484375 0 -3.859375 -1.265625q-1.375 -1.28125 -1.375 -3.328125q0 -1.984375 1.34375 -3.234375q1.34375 -1.25 3.796875 -1.25q0.140625 0 0.4375 0.015625l0 7.34375q1.625 -0.09375 2.484375 -0.921875q0.859375 -0.828125 0.859375 -2.0625q0 -0.90625 -0.46875 -1.546875q-0.484375 -0.65625 -1.546875 -1.046875zm-2.703125 5.484375l0 -5.5q-1.234375 0.109375 -1.859375 0.625q-0.96875 0.796875 -0.96875 2.078125q0 1.140625 0.78125 1.9375q0.765625 0.78125 2.046875 0.859375zm2.265625 -15.547607l0.21875 -1.640625q1.6875 0.265625 2.65625 1.375q0.953125 1.109375 0.953125 2.734375q0 2.015625 -1.3125 3.25q-1.328125 1.21875 -3.796875 1.21875q-1.59375 0 -2.78125 -0.515625q-1.203125 -0.53125 -1.796875 -1.609375q-0.609375 -1.09375 -0.609375 -2.359375q0 -1.609375 0.8125 -2.625q0.8125 -1.015625 2.3125 -1.3125l0.25 1.625q-1.0 0.234375 -1.5 0.828125q-0.5 0.59375 -0.5 1.421875q0 1.265625 0.90625 2.0625q0.90625 0.78125 2.859375 0.78125q1.984375 0 2.890625 -0.765625q0.890625 -0.765625 0.890625 -1.984375q0 -0.984375 -0.59375 -1.640625q-0.609375 -0.65625 -1.859375 -0.84375zm-6.25 -2.0l0 -8.0l1.390625 0l0 3.171875l8.46875 0l0 1.65625l-8.46875 0l0 3.171875l-1.390625 0zm0 -9.435333l0 -1.671875l7.515625 0l-7.515625 -4.625l0 -1.8125l9.859375 0l0 1.671875l-7.46875 0l7.46875 4.640625l0 1.796875l-9.859375 0zm0 -10.452515l0 -1.671875l8.484375 0l0 -4.625l-8.484375 0l0 -1.65625l8.484375 0l0 -1.078125l4.171875 0l0 1.375l-2.796875 0l0 7.65625l-9.859375 0zm0 -10.654175l0 -1.671875l7.515625 0l-7.515625 -4.625l0 -1.8125l9.859375 0l0 1.671875l-7.46875 0l7.46875 4.640625l0 1.796875l-9.859375 0zm0 -18.18689l9.859375 0l0 1.671875l-3.84375 0l0 0.953125q0 0.890625 0.234375 1.328125q0.21875 0.421875 1.453125 1.25l2.15625 1.453125l0 2.078125l-2.65625 -1.8125q-1.21875 -0.8125 -1.375 -1.640625q-0.1875 1.4375 -1.015625 2.125q-0.84375 0.6875 -1.9375 0.6875q-1.265625 0 -2.0625 -0.90625q-0.8125 -0.90625 -0.8125 -2.609375l0 -4.578125zm1.390625 1.671875l0 2.375q0 1.484375 0.46875 1.921875q0.453125 0.4375 1.078125 0.4375q0.875 0 1.296875 -0.640625q0.40625 -0.640625 0.40625 -2.25l0 -1.84375l-3.25 0zm4.015625 -11.379486l-1.3125 0q0 -1.046875 -0.078125 -1.4375q-0.078125 -0.390625 -0.4375 -0.734375q-0.375 -0.34375 -0.9375 -0.34375q-0.671875 0 -1.078125 0.453125q-0.40625 0.453125 -0.40625 1.171875q0 1.40625 1.65625 1.96875l-0.25 1.59375q-2.78125 -0.75 -2.78125 -3.578125q0 -1.578125 0.875 -2.46875q0.859375 -0.90625 2.046875 -0.90625q1.203125 0 1.921875 1.171875q0.40625 -0.75 1.03125 -1.109375q0.609375 -0.375 1.453125 -0.375q1.328125 0 2.15625 0.96875q0.8125 0.953125 0.8125 2.6875q0 3.375 -3.0 3.90625l-0.328125 -1.5625q0.953125 -0.21875 1.46875 -0.859375q0.515625 -0.65625 0.515625 -1.5q0 -0.84375 -0.46875 -1.40625q-0.484375 -0.5625 -1.234375 -0.5625q-0.5625 0 -0.984375 0.359375q-0.4375 0.34375 -0.546875 0.75q-0.109375 0.390625 -0.109375 1.4375q0 0.078125 0.015625 0.375zm3.234375 -12.8038025q0.796875 0.9375 1.125 1.796875q0.3125 0.859375 0.3125 1.84375q0 1.609375 -0.78125 2.484375q-0.796875 0.875 -2.03125 0.875q-0.734375 0 -1.328125 -0.328125q-0.59375 -0.328125 -0.953125 -0.859375q-0.359375 -0.53125 -0.546875 -1.203125q-0.140625 -0.5 -0.25 -1.484375q-0.25 -2.03125 -0.578125 -2.984375q-0.34375 0 -0.4375 0q-1.015625 0 -1.4375 0.46875q-0.5625 0.640625 -0.5625 1.90625q0 1.171875 0.40625 1.734375q0.40625 0.5625 1.46875 0.828125l-0.234375 1.640625q-1.046875 -0.234375 -1.6875 -0.734375q-0.640625 -0.515625 -0.984375 -1.46875q-0.359375 -0.96875 -0.359375 -2.25q0 -1.265625 0.296875 -2.046875q0.296875 -0.78125 0.75 -1.15625q0.453125 -0.375 1.140625 -0.515625q0.421875 -0.09375 1.53125 -0.09375l2.234375 0q2.328125 0 2.953125 -0.09375q0.609375 -0.109375 1.171875 -0.4375l0 1.75q-0.515625 0.265625 -1.21875 0.328125zm-3.71875 0.140625q0.359375 0.90625 0.625 2.734375q0.140625 1.03125 0.328125 1.453125q0.1875 0.421875 0.546875 0.65625q0.359375 0.234375 0.796875 0.234375q0.671875 0 1.125 -0.5q0.4375 -0.515625 0.4375 -1.484375q0 -0.96875 -0.421875 -1.71875q-0.4375 -0.75 -1.15625 -1.109375q-0.578125 -0.265625 -1.671875 -0.265625l-0.609375 0zm-4.921875 -9.277771l0 -7.765625l9.859375 0l0 1.671875l-8.46875 0l0 4.421875l8.46875 0l0 1.671875l-9.859375 0zm13.640627 -10.0868225l-13.640627 0l0 -1.53125l1.28125 0q-0.75 -0.53125 -1.125 -1.203125q-0.375 -0.6875 -0.375 -1.640625q0 -1.265625 0.65625 -2.234375q0.640625 -0.96875 1.828125 -1.453125q1.1875 -0.5 2.59375 -0.5q1.515625 0 2.734375 0.546875q1.203125 0.546875 1.84375 1.578125q0.640625 1.03125 0.640625 2.171875q0 0.84375 -0.34375 1.515625q-0.359375 0.65625 -0.890625 1.078125l4.796877 0l0 1.671875zm-8.656252 -1.515625q1.90625 0 2.8125 -0.765625q0.90625 -0.78125 0.90625 -1.875q0 -1.109375 -0.9375 -1.890625q-0.9375 -0.796875 -2.921875 -0.796875q-1.875 0 -2.8125 0.78125q-0.9375 0.765625 -0.9375 1.84375q0 1.0625 1.0 1.890625q1.0 0.8125 2.890625 0.8125zm1.703125 -15.610077l0.21875 -1.71875q1.5 0.40625 2.34375 1.515625q0.828125 1.09375 0.828125 2.8125q0 2.15625 -1.328125 3.421875q-1.328125 1.265625 -3.734375 1.265625q-2.484375 0 -3.859375 -1.265625q-1.375 -1.28125 -1.375 -3.328125q0 -1.984375 1.34375 -3.234375q1.34375 -1.25 3.796875 -1.25q0.140625 0 0.4375 0.015625l0 7.34375q1.625 -0.09375 2.484375 -0.921875q0.859375 -0.828125 0.859375 -2.0625q0 -0.90625 -0.46875 -1.546875q-0.484375 -0.65625 -1.546875 -1.046875zm-2.703125 5.484375l0 -5.5q-1.234375 0.109375 -1.859375 0.625q-0.96875 0.796875 -0.96875 2.078125q0 1.140625 0.78125 1.9375q0.765625 0.78125 2.046875 0.859375zm-3.984375 -10.422607l0 -6.8750153l8.484375 0l0 -1.0625l4.171875 0l0 1.375l-2.796875 0l0 7.7500153l2.796875 0l0 1.375l-4.171875 0l0 -0.875q-2.390625 -1.765625 -8.484375 -1.6875zm1.390625 -1.40625q4.796875 0.1875 7.09375 1.484375l0 -5.296875l-7.09375 0l0 3.8125zm-1.390625 -8.1827545l0 -7.765625l9.859375 0l0 1.671875l-8.46875 0l0 4.421875l8.46875 0l0 1.671875l-9.859375 0zm8.640625 -16.524292q0.796875 0.9375 1.125 1.796875q0.3125 0.859375 0.3125 1.84375q0 1.609375 -0.78125 2.484375q-0.796875 0.875 -2.03125 0.875q-0.734375 0 -1.328125 -0.328125q-0.59375 -0.328125 -0.953125 -0.859375q-0.359375 -0.53125 -0.546875 -1.203125q-0.140625 -0.5 -0.25 -1.484375q-0.25 -2.03125 -0.578125 -2.984375q-0.34375 0 -0.4375 0q-1.015625 0 -1.4375 0.46875q-0.5625 0.640625 -0.5625 1.90625q0 1.171875 0.40625 1.734375q0.40625 0.5625 1.46875 0.828125l-0.234375 1.640625q-1.046875 -0.234375 -1.6875 -0.734375q-0.640625 -0.515625 -0.984375 -1.46875q-0.359375 -0.96875 -0.359375 -2.25q0 -1.265625 0.296875 -2.046875q0.296875 -0.78125 0.75 -1.15625q0.453125 -0.375 1.140625 -0.515625q0.421875 -0.09375 1.53125 -0.09375l2.234375 0q2.328125 0 2.953125 -0.09375q0.609375 -0.109375 1.171875 -0.4375l0 1.75q-0.515625 0.265625 -1.21875 0.328125zm-3.71875 0.140625q0.359375 0.90625 0.625 2.734375q0.140625 1.03125 0.328125 1.453125q0.1875 0.421875 0.546875 0.65625q0.359375 0.234375 0.796875 0.234375q0.671875 0 1.125 -0.5q0.4375 -0.515625 0.4375 -1.484375q0 -0.96875 -0.421875 -1.71875q-0.4375 -0.75 -1.15625 -1.109375q-0.578125 -0.265625 -1.671875 -0.265625l-0.609375 0zm0.484375 -6.2663574l-1.3125 0q0 -1.046875 -0.078125 -1.4375q-0.078125 -0.390625 -0.4375 -0.734375q-0.375 -0.34375 -0.9375 -0.34375q-0.671875 0 -1.078125 0.453125q-0.40625 0.453125 -0.40625 1.171875q0 1.40625 1.65625 1.96875l-0.25 1.59375q-2.78125 -0.75 -2.78125 -3.578125q0 -1.578125 0.875 -2.46875q0.859375 -0.90625 2.046875 -0.90625q1.203125 0 1.921875 1.171875q0.40625 -0.75 1.03125 -1.109375q0.609375 -0.375 1.453125 -0.375q1.328125 0 2.15625 0.96875q0.8125 0.953125 0.8125 2.6875q0 3.375 -3.0 3.90625l-0.328125 -1.5625q0.953125 -0.21875 1.46875 -0.859375q0.515625 -0.65625 0.515625 -1.5q0 -0.84375 -0.46875 -1.40625q-0.484375 -0.5625 -1.234375 -0.5625q-0.5625 0 -0.984375 0.359375q-0.4375 0.34375 -0.546875 0.75q-0.109375 0.390625 -0.109375 1.4375q0 0.078125 0.015625 0.375zm-5.40625 -6.381958l0 -3.84375q0 -1.421875 0.25 -2.109375q0.234375 -0.6875 0.859375 -1.1875q0.625 -0.5 1.515625 -0.5q0.703125 0 1.234375 0.296875q0.515625 0.28125 0.875 0.875q0.21875 -0.703125 0.859375 -1.15625q0.640625 -0.46875 1.515625 -0.46875q1.390625 0.09375 2.078125 1.015625q0.671875 0.90625 0.671875 2.640625l0 4.4375l-9.859375 0zm4.15625 -1.671875l0 -1.78125q0 -1.0625 -0.109375 -1.453125q-0.109375 -0.40625 -0.453125 -0.71875q-0.34375 -0.3125 -0.8125 -0.3125q-0.78125 0 -1.078125 0.546875q-0.3125 0.546875 -0.3125 1.890625l0 1.828125l2.765625 0zm4.328125 0l0 -2.1875q0 -1.421875 -0.328125 -1.953125q-0.328125 -0.53125 -1.140625 -0.5625q-0.46875 0 -0.875 0.3125q-0.40625 0.3125 -0.5 0.796875q-0.109375 0.484375 -0.109375 1.578125l0 2.015625l2.953125 0zm0.15625 -14.661133q0.796875 0.9375 1.125 1.796875q0.3125 0.859375 0.3125 1.84375q0 1.609375 -0.78125 2.484375q-0.796875 0.875 -2.03125 0.875q-0.734375 0 -1.328125 -0.328125q-0.59375 -0.328125 -0.953125 -0.859375q-0.359375 -0.53125 -0.546875 -1.203125q-0.140625 -0.5 -0.25 -1.484375q-0.25 -2.03125 -0.578125 -2.984375q-0.34375 0 -0.4375 0q-1.015625 0 -1.4375 0.46875q-0.5625 0.640625 -0.5625 1.90625q0 1.171875 0.40625 1.734375q0.40625 0.5625 1.46875 0.828125l-0.234375 1.640625q-1.046875 -0.234375 -1.6875 -0.734375q-0.640625 -0.515625 -0.984375 -1.46875q-0.359375 -0.96875 -0.359375 -2.25q0 -1.265625 0.296875 -2.046875q0.296875 -0.78125 0.75 -1.15625q0.453125 -0.375 1.140625 -0.515625q0.421875 -0.09375 1.53125 -0.09375l2.234375 0q2.328125 0 2.953125 -0.09375q0.609375 -0.109375 1.171875 -0.4375l0 1.75q-0.515625 0.265625 -1.21875 0.328125zm-3.71875 0.140625q0.359375 0.90625 0.625 2.734375q0.140625 1.03125 0.328125 1.453125q0.1875 0.421875 0.546875 0.65625q0.359375 0.234375 0.796875 0.234375q0.671875 0 1.125 -0.5q0.4375 -0.515625 0.4375 -1.484375q0 -0.96875 -0.421875 -1.71875q-0.4375 -0.75 -1.15625 -1.109375q-0.578125 -0.265625 -1.671875 -0.265625l-0.609375 0zm-4.921875 -4.0944824l0 -1.671875l4.109375 0l0 -4.625l-4.109375 0l0 -1.671875l9.859375 0l0 1.671875l-4.375 0l0 4.625l4.375 0l0 1.671875l-9.859375 0zm6.6875 -17.037231l0.21875 -1.71875q1.5 0.40625 2.34375 1.515625q0.828125 1.09375 0.828125 2.8125q0 2.15625 -1.328125 3.421875q-1.328125 1.265625 -3.734375 1.265625q-2.484375 0 -3.859375 -1.265625q-1.375 -1.28125 -1.375 -3.328125q0 -1.984375 1.34375 -3.234375q1.34375 -1.25 3.796875 -1.25q0.140625 0 0.4375 0.015625l0 7.34375q1.625 -0.09375 2.484375 -0.921875q0.859375 -0.828125 0.859375 -2.0625q0 -0.90625 -0.46875 -1.546875q-0.484375 -0.65625 -1.546875 -1.046875zm-2.703125 5.484375l0 -5.5q-1.234375 0.109375 -1.859375 0.625q-0.96875 0.796875 -0.96875 2.078125q0 1.140625 0.78125 1.9375q0.765625 0.78125 2.046875 0.859375z" fill-rule="nonzero"></path><path fill="#000000" d="m675.51184 653.67194l0 0c0 -3.1311035 2.538208 -5.6693115 5.6692505 -5.6693115l0 0c1.5036011 0 2.9456177 0.59729004 4.008789 1.6605225c1.0632324 1.0631714 1.6605225 2.505188 1.6605225 4.008789l0 0c0 3.1310425 -2.538208 5.6692505 -5.6693115 5.6692505l0 0c-3.1310425 0 -5.6692505 -2.538208 -5.6692505 -5.6692505z" fill-rule="evenodd"></path><path stroke="#000000" stroke-width="1.0" stroke-linejoin="round" stroke-linecap="butt" d="m675.51184 653.67194l0 0c0 -3.1311035 2.538208 -5.6693115 5.6692505 -5.6693115l0 0c1.5036011 0 2.9456177 0.59729004 4.008789 1.6605225c1.0632324 1.0631714 1.6605225 2.505188 1.6605225 4.008789l0 0c0 3.1310425 -2.538208 5.6692505 -5.6693115 5.6692505l0 0c-3.1310425 0 -5.6692505 -2.538208 -5.6692505 -5.6692505z" fill-rule="evenodd"></path><path fill="#000000" fill-opacity="0.0" d="m550.92126 559.35956l185.29132 0l0 100.0l-185.29132 0z" fill-rule="evenodd"></path><path fill="#000000" d="m560.9369 571.8471l1.234375 0l0 4.078125q0.84375 0 1.1875 -0.328125q0.34375 -0.328125 0.875 -1.5625q0.390625 -0.921875 0.640625 -1.296875q0.25 -0.375 0.703125 -0.625q0.46875 -0.265625 1.03125 -0.265625q0.71875 0 0.75 0.015625l0 1.0625q-0.0625 0 -0.25 0q-0.203125 -0.015625 -0.25 -0.015625q-0.578125 0 -0.875 0.296875q-0.28125 0.28125 -0.65625 1.21875q-0.46875 1.171875 -0.796875 1.484375q-0.328125 0.3125 -0.78125 0.484375q0.90625 0.25 1.78125 1.671875l1.921875 3.09375l-1.53125 0l-1.5625 -2.53125q-0.640625 -1.046875 -1.078125 -1.4375q-0.421875 -0.390625 -1.109375 -0.390625l0 4.359375l-1.234375 0l0 -9.3125zm7.607666 11.890625l0 -9.3125l1.03125 0l0 0.875q0.375 -0.515625 0.828125 -0.765625q0.46875 -0.265625 1.140625 -0.265625q0.859375 0 1.515625 0.453125q0.65625 0.4375 0.984375 1.25q0.34375 0.796875 0.34375 1.765625q0 1.03125 -0.375 1.859375q-0.359375 0.828125 -1.078125 1.28125q-0.703125 0.4375 -1.484375 0.4375q-0.5625 0 -1.015625 -0.234375q-0.453125 -0.25 -0.75 -0.625l0 3.28125l-1.140625 0zm1.03125 -5.90625q0 1.296875 0.53125 1.921875q0.53125 0.625 1.265625 0.625q0.765625 0 1.3125 -0.640625q0.546875 -0.65625 0.546875 -2.0q0 -1.296875 -0.53125 -1.9375q-0.53125 -0.640625 -1.265625 -0.640625q-0.734375 0 -1.296875 0.6875q-0.5625 0.671875 -0.5625 1.984375zm10.771851 2.5q-0.625 0.53125 -1.21875 0.765625q-0.578125 0.21875 -1.25 0.21875q-1.125 0 -1.71875 -0.546875q-0.59375 -0.546875 -0.59375 -1.390625q0 -0.484375 0.21875 -0.890625q0.234375 -0.421875 0.59375 -0.671875q0.375 -0.25 0.828125 -0.375q0.328125 -0.078125 1.015625 -0.171875q1.375 -0.15625 2.03125 -0.390625q0.015625 -0.234375 0.015625 -0.296875q0 -0.703125 -0.328125 -0.984375q-0.4375 -0.390625 -1.296875 -0.390625q-0.8125 0 -1.203125 0.28125q-0.375 0.28125 -0.5625 1.0l-1.109375 -0.140625q0.140625 -0.71875 0.484375 -1.15625q0.359375 -0.453125 1.015625 -0.6875q0.671875 -0.234375 1.53125 -0.234375q0.875 0 1.40625 0.203125q0.546875 0.203125 0.796875 0.515625q0.25 0.296875 0.359375 0.765625q0.046875 0.296875 0.046875 1.0625l0 1.515625q0 1.59375 0.078125 2.015625q0.078125 0.421875 0.28125 0.8125l-1.1875 0q-0.171875 -0.359375 -0.234375 -0.828125zm-0.09375 -2.5625q-0.625 0.265625 -1.859375 0.4375q-0.703125 0.109375 -1.0 0.234375q-0.296875 0.125 -0.453125 0.375q-0.15625 0.234375 -0.15625 0.53125q0 0.453125 0.34375 0.765625q0.34375 0.296875 1.015625 0.296875q0.65625 0 1.171875 -0.28125q0.515625 -0.296875 0.765625 -0.796875q0.171875 -0.375 0.171875 -1.140625l0 -0.421875zm7.1937256 -3.34375l0 2.90625q0.546875 0 0.765625 -0.203125q0.21875 -0.21875 0.640625 -1.21875q0.40625 -0.96875 0.71875 -1.234375q0.3125 -0.25 1.0 -0.25l0.40625 0l0 0.9375l-0.3125 0q-0.453125 0 -0.578125 0.125q-0.125 0.140625 -0.40625 0.828125q-0.25 0.671875 -0.46875 0.921875q-0.21875 0.25 -0.671875 0.46875q0.734375 0.1875 1.453125 1.359375l1.25 2.09375l-1.25 0l-1.234375 -2.09375q-0.375 -0.625 -0.65625 -0.8125q-0.28125 -0.203125 -0.65625 -0.203125l0 3.109375l-1.171875 0l0 -3.109375q-0.375 0 -0.65625 0.1875q-0.28125 0.1875 -0.65625 0.828125l-1.234375 2.09375l-1.25 0l1.25 -2.09375q0.71875 -1.171875 1.453125 -1.359375q-0.5 -0.234375 -0.703125 -0.515625q-0.203125 -0.28125 -0.609375 -1.3125q-0.140625 -0.359375 -0.3125 -0.4375q-0.15625 -0.078125 -0.484375 -0.078125q-0.078125 0 -0.328125 0l0 -0.9375l0.15625 0q0.65625 0 0.921875 0.078125q0.28125 0.078125 0.484375 0.34375q0.21875 0.25 0.5625 1.0625q0.421875 0.984375 0.640625 1.203125q0.21875 0.21875 0.765625 0.21875l0 -2.90625l1.171875 0zm9.7751465 -2.796875l1.015625 0.015625q-0.078125 0.671875 -0.3125 0.953125q-0.234375 0.265625 -0.59375 0.34375q-0.359375 0.0625 -1.4375 0.0625q-1.40625 0 -1.921875 0.28125q-0.515625 0.265625 -0.75 0.875q-0.21875 0.59375 -0.234375 1.546875q0.421875 -0.640625 1.0 -0.953125q0.578125 -0.328125 1.296875 -0.328125q1.328125 0 2.203125 0.90625q0.875 0.90625 0.875 2.46875q0 1.171875 -0.4375 1.9375q-0.4375 0.75 -1.046875 1.171875q-0.59375 0.40625 -1.625 0.40625q-1.203125 0 -1.875 -0.546875q-0.671875 -0.5625 -1.03125 -1.40625q-0.34375 -0.859375 -0.34375 -2.984375q0 -2.671875 0.90625 -3.59375q0.90625 -0.9375 2.78125 -0.9375q1.171875 0 1.328125 -0.03125q0.15625 -0.046875 0.203125 -0.1875zm-0.0625 6.140625q0 -1.0625 -0.5 -1.734375q-0.5 -0.671875 -1.40625 -0.671875q-0.9375 0 -1.453125 0.71875q-0.515625 0.703125 -0.515625 1.890625q0 1.171875 0.5625 1.796875q0.578125 0.625 1.40625 0.625q0.84375 0 1.375 -0.71875q0.53125 -0.71875 0.53125 -1.90625zm7.149353 2.5625q-0.625 0.53125 -1.21875 0.765625q-0.578125 0.21875 -1.25 0.21875q-1.125 0 -1.71875 -0.546875q-0.59375 -0.546875 -0.59375 -1.390625q0 -0.484375 0.21875 -0.890625q0.234375 -0.421875 0.59375 -0.671875q0.375 -0.25 0.828125 -0.375q0.328125 -0.078125 1.015625 -0.171875q1.375 -0.15625 2.03125 -0.390625q0.015625 -0.234375 0.015625 -0.296875q0 -0.703125 -0.328125 -0.984375q-0.4375 -0.390625 -1.296875 -0.390625q-0.8125 0 -1.203125 0.28125q-0.375 0.28125 -0.5625 1.0l-1.109375 -0.140625q0.140625 -0.71875 0.484375 -1.15625q0.359375 -0.453125 1.015625 -0.6875q0.671875 -0.234375 1.53125 -0.234375q0.875 0 1.40625 0.203125q0.546875 0.203125 0.796875 0.515625q0.25 0.296875 0.359375 0.765625q0.046875 0.296875 0.046875 1.0625l0 1.515625q0 1.59375 0.078125 2.015625q0.078125 0.421875 0.28125 0.8125l-1.1875 0q-0.171875 -0.359375 -0.234375 -0.828125zm-0.09375 -2.5625q-0.625 0.265625 -1.859375 0.4375q-0.703125 0.109375 -1.0 0.234375q-0.296875 0.125 -0.453125 0.375q-0.15625 0.234375 -0.15625 0.53125q0 0.453125 0.34375 0.765625q0.34375 0.296875 1.015625 0.296875q0.65625 0 1.171875 -0.28125q0.515625 -0.296875 0.765625 -0.796875q0.171875 -0.375 0.171875 -1.140625l0 -0.421875zm6.8186035 -3.34375l2.640625 0q0.96875 0 1.4375 0.15625q0.484375 0.15625 0.8125 0.59375q0.34375 0.4375 0.34375 1.03125q0 0.484375 -0.203125 0.84375q-0.203125 0.359375 -0.59375 0.59375q0.46875 0.15625 0.78125 0.59375q0.328125 0.4375 0.328125 1.03125q-0.078125 0.96875 -0.703125 1.4375q-0.609375 0.453125 -1.796875 0.453125l-3.046875 0l0 -6.734375zm1.140625 2.828125l1.21875 0q0.734375 0 1.0 -0.078125q0.28125 -0.078125 0.5 -0.296875q0.21875 -0.234375 0.21875 -0.5625q0 -0.53125 -0.390625 -0.734375q-0.375 -0.21875 -1.28125 -0.21875l-1.265625 0l0 1.890625zm0 2.96875l1.515625 0q0.96875 0 1.328125 -0.21875q0.359375 -0.234375 0.375 -0.78125q0 -0.328125 -0.203125 -0.59375q-0.203125 -0.28125 -0.546875 -0.359375q-0.34375 -0.078125 -1.078125 -0.078125l-1.390625 0l0 2.03125zm9.642944 -5.796875l3.875 0l0 0.9375l-2.734375 0l0 5.796875l-1.140625 0l0 -6.734375zm4.861389 9.3125l0 -9.3125l1.03125 0l0 0.875q0.375 -0.515625 0.828125 -0.765625q0.46875 -0.265625 1.140625 -0.265625q0.859375 0 1.515625 0.453125q0.65625 0.4375 0.984375 1.25q0.34375 0.796875 0.34375 1.765625q0 1.03125 -0.375 1.859375q-0.359375 0.828125 -1.078125 1.28125q-0.703125 0.4375 -1.484375 0.4375q-0.5625 0 -1.015625 -0.234375q-0.453125 -0.25 -0.75 -0.625l0 3.28125l-1.140625 0zm1.03125 -5.90625q0 1.296875 0.53125 1.921875q0.53125 0.625 1.265625 0.625q0.765625 0 1.3125 -0.640625q0.546875 -0.65625 0.546875 -2.0q0 -1.296875 -0.53125 -1.9375q-0.53125 -0.640625 -1.265625 -0.640625q-0.734375 0 -1.296875 0.6875q-0.5625 0.671875 -0.5625 1.984375zm10.771851 2.5q-0.625 0.53125 -1.21875 0.765625q-0.578125 0.21875 -1.25 0.21875q-1.125 0 -1.71875 -0.546875q-0.59375 -0.546875 -0.59375 -1.390625q0 -0.484375 0.21875 -0.890625q0.234375 -0.421875 0.59375 -0.671875q0.375 -0.25 0.828125 -0.375q0.328125 -0.078125 1.015625 -0.171875q1.375 -0.15625 2.03125 -0.390625q0.015625 -0.234375 0.015625 -0.296875q0 -0.703125 -0.328125 -0.984375q-0.4375 -0.390625 -1.296875 -0.390625q-0.8125 0 -1.203125 0.28125q-0.375 0.28125 -0.5625 1.0l-1.109375 -0.140625q0.140625 -0.71875 0.484375 -1.15625q0.359375 -0.453125 1.015625 -0.6875q0.671875 -0.234375 1.53125 -0.234375q0.875 0 1.40625 0.203125q0.546875 0.203125 0.796875 0.515625q0.25 0.296875 0.359375 0.765625q0.046875 0.296875 0.046875 1.0625l0 1.515625q0 1.59375 0.078125 2.015625q0.078125 0.421875 0.28125 0.8125l-1.1875 0q-0.171875 -0.359375 -0.234375 -0.828125zm-0.09375 -2.5625q-0.625 0.265625 -1.859375 0.4375q-0.703125 0.109375 -1.0 0.234375q-0.296875 0.125 -0.453125 0.375q-0.15625 0.234375 -0.15625 0.53125q0 0.453125 0.34375 0.765625q0.34375 0.296875 1.015625 0.296875q0.65625 0 1.171875 -0.28125q0.515625 -0.296875 0.765625 -0.796875q0.171875 -0.375 0.171875 -1.140625l0 -0.421875zm4.0218506 -3.34375l4.6875 0l0 5.796875l0.734375 0l0 2.84375l-0.9375 0l0 -1.90625l-5.3125 0l0 1.90625l-0.9375 0l0 -2.84375l0.609375 0q1.203125 -1.640625 1.15625 -5.796875zm0.9375 0.9375q-0.125 3.28125 -1.015625 4.859375l3.625 0l0 -4.859375l-2.609375 0zm10.3237915 3.328125l1.125 0.140625q-0.171875 1.171875 -0.9375 1.828125q-0.765625 0.65625 -1.859375 0.65625q-1.390625 0 -2.234375 -0.90625q-0.828125 -0.90625 -0.828125 -2.59375q0 -1.09375 0.359375 -1.90625q0.359375 -0.828125 1.09375 -1.234375q0.734375 -0.40625 1.609375 -0.40625q1.09375 0 1.796875 0.5625q0.703125 0.546875 0.890625 1.5625l-1.109375 0.171875q-0.15625 -0.671875 -0.5625 -1.015625q-0.390625 -0.34375 -0.96875 -0.34375q-0.859375 0 -1.40625 0.625q-0.53125 0.609375 -0.53125 1.953125q0 1.359375 0.515625 1.984375q0.515625 0.609375 1.359375 0.609375q0.671875 0 1.125 -0.40625q0.453125 -0.421875 0.5625 -1.28125zm2.2578125 -4.265625l1.15625 0l0 2.90625q0.546875 0 0.765625 -0.203125q0.21875 -0.21875 0.640625 -1.21875q0.328125 -0.8125 0.53125 -1.0625q0.21875 -0.25 0.484375 -0.328125q0.28125 -0.09375 0.890625 -0.09375l0.21875 0l0 0.9375l-0.3125 0q-0.453125 0 -0.578125 0.125q-0.140625 0.140625 -0.40625 0.828125q-0.265625 0.671875 -0.484375 0.921875q-0.203125 0.25 -0.65625 0.46875q0.734375 0.1875 1.4375 1.359375l1.265625 2.09375l-1.265625 0l-1.21875 -2.09375q-0.375 -0.625 -0.65625 -0.8125q-0.28125 -0.203125 -0.65625 -0.203125l0 3.109375l-1.15625 0l0 -6.734375zm5.8466797 0l1.140625 0l0 5.140625l3.171875 -5.140625l1.234375 0l0 6.734375l-1.15625 0l0 -5.109375l-3.15625 5.109375l-1.234375 0l0 -6.734375zm12.741882 0l0 6.734375l-1.125 0l0 -2.625l-0.65625 0q-0.609375 0 -0.90625 0.15625q-0.296875 0.15625 -0.859375 1.0l-1.0 1.46875l-1.40625 0l1.21875 -1.8125q0.578125 -0.828125 1.125 -0.9375q-0.96875 -0.140625 -1.453125 -0.703125q-0.46875 -0.578125 -0.46875 -1.328125q0 -0.875 0.609375 -1.40625q0.625 -0.546875 1.8125 -0.546875l3.109375 0zm-1.125 0.9375l-1.625 0q-1.03125 0 -1.328125 0.328125q-0.28125 0.3125 -0.28125 0.734375q0 0.609375 0.421875 0.890625q0.4375 0.28125 1.546875 0.28125l1.265625 0l0 -2.234375z" fill-rule="nonzero"></path><path fill="#000000" d="m560.15564 590.42523l5.484375 0l0 0.9375l-2.171875 0l0 5.796875l-1.140625 0l0 -5.796875l-2.171875 0l0 -0.9375zm6.72937 9.3125l0 -9.3125l1.03125 0l0 0.875q0.375 -0.515625 0.828125 -0.765625q0.46875 -0.265625 1.140625 -0.265625q0.859375 0 1.515625 0.453125q0.65625 0.4375 0.984375 1.25q0.34375 0.796875 0.34375 1.765625q0 1.03125 -0.375 1.859375q-0.359375 0.828125 -1.078125 1.28125q-0.703125 0.4375 -1.484375 0.4375q-0.5625 0 -1.015625 -0.234375q-0.453125 -0.25 -0.75 -0.625l0 3.28125l-1.140625 0zm1.03125 -5.90625q0 1.296875 0.53125 1.921875q0.53125 0.625 1.265625 0.625q0.765625 0 1.3125 -0.640625q0.546875 -0.65625 0.546875 -2.0q0 -1.296875 -0.53125 -1.9375q-0.53125 -0.640625 -1.265625 -0.640625q-0.734375 0 -1.296875 0.6875q-0.5625 0.671875 -0.5625 1.984375zm6.3812256 -3.40625l1.140625 0l0 2.796875l3.171875 0l0 -2.796875l1.140625 0l0 6.734375l-1.140625 0l0 -2.984375l-3.171875 0l0 2.984375l-1.140625 0l0 -6.734375zm11.751038 5.90625q-0.625 0.53125 -1.21875 0.765625q-0.578125 0.21875 -1.25 0.21875q-1.125 0 -1.71875 -0.546875q-0.59375 -0.546875 -0.59375 -1.390625q0 -0.484375 0.21875 -0.890625q0.234375 -0.421875 0.59375 -0.671875q0.375 -0.25 0.828125 -0.375q0.328125 -0.078125 1.015625 -0.171875q1.375 -0.15625 2.03125 -0.390625q0.015625 -0.234375 0.015625 -0.296875q0 -0.703125 -0.328125 -0.984375q-0.4375 -0.390625 -1.296875 -0.390625q-0.8125 0 -1.203125 0.28125q-0.375 0.28125 -0.5625 1.0l-1.109375 -0.140625q0.140625 -0.71875 0.484375 -1.15625q0.359375 -0.453125 1.015625 -0.6875q0.671875 -0.234375 1.53125 -0.234375q0.875 0 1.40625 0.203125q0.546875 0.203125 0.796875 0.515625q0.25 0.296875 0.359375 0.765625q0.046875 0.296875 0.046875 1.0625l0 1.515625q0 1.59375 0.078125 2.015625q0.078125 0.421875 0.28125 0.8125l-1.1875 0q-0.171875 -0.359375 -0.234375 -0.828125zm-0.09375 -2.5625q-0.625 0.265625 -1.859375 0.4375q-0.703125 0.109375 -1.0 0.234375q-0.296875 0.125 -0.453125 0.375q-0.15625 0.234375 -0.15625 0.53125q0 0.453125 0.34375 0.765625q0.34375 0.296875 1.015625 0.296875q0.65625 0 1.171875 -0.28125q0.515625 -0.296875 0.765625 -0.796875q0.171875 -0.375 0.171875 -1.140625l0 -0.421875zm7.5062256 0.921875l1.125 0.140625q-0.171875 1.171875 -0.9375 1.828125q-0.765625 0.65625 -1.859375 0.65625q-1.390625 0 -2.234375 -0.90625q-0.828125 -0.90625 -0.828125 -2.59375q0 -1.09375 0.359375 -1.90625q0.359375 -0.828125 1.09375 -1.234375q0.734375 -0.40625 1.609375 -0.40625q1.09375 0 1.796875 0.5625q0.703125 0.546875 0.890625 1.5625l-1.109375 0.171875q-0.15625 -0.671875 -0.5625 -1.015625q-0.390625 -0.34375 -0.96875 -0.34375q-0.859375 0 -1.40625 0.625q-0.53125 0.609375 -0.53125 1.953125q0 1.359375 0.515625 1.984375q0.515625 0.609375 1.359375 0.609375q0.671875 0 1.125 -0.40625q0.453125 -0.421875 0.5625 -1.28125zm2.2734375 -4.265625l5.328125 0l0 6.734375l-1.140625 0l0 -5.796875l-3.046875 0l0 5.796875l-1.140625 0l0 -6.734375zm6.795349 3.359375q0 -1.875 1.03125 -2.765625q0.875 -0.75 2.125 -0.75q1.390625 0 2.265625 0.90625q0.890625 0.90625 0.890625 2.515625q0 1.296875 -0.390625 2.046875q-0.390625 0.75 -1.140625 1.171875q-0.75 0.40625 -1.625 0.40625q-1.421875 0 -2.296875 -0.90625q-0.859375 -0.90625 -0.859375 -2.625zm1.171875 0q0 1.296875 0.5625 1.953125q0.5625 0.640625 1.421875 0.640625q0.84375 0 1.40625 -0.640625q0.578125 -0.65625 0.578125 -1.984375q0 -1.25 -0.578125 -1.890625q-0.5625 -0.65625 -1.40625 -0.65625q-0.859375 0 -1.421875 0.640625q-0.5625 0.640625 -0.5625 1.9375zm6.6624756 5.953125l0 -9.3125l1.03125 0l0 0.875q0.375 -0.515625 0.828125 -0.765625q0.46875 -0.265625 1.140625 -0.265625q0.859375 0 1.515625 0.453125q0.65625 0.4375 0.984375 1.25q0.34375 0.796875 0.34375 1.765625q0 1.03125 -0.375 1.859375q-0.359375 0.828125 -1.078125 1.28125q-0.703125 0.4375 -1.484375 0.4375q-0.5625 0 -1.015625 -0.234375q-0.453125 -0.25 -0.75 -0.625l0 3.28125l-1.140625 0zm1.03125 -5.90625q0 1.296875 0.53125 1.921875q0.53125 0.625 1.265625 0.625q0.765625 0 1.3125 -0.640625q0.546875 -0.65625 0.546875 -2.0q0 -1.296875 -0.53125 -1.9375q-0.53125 -0.640625 -1.265625 -0.640625q-0.734375 0 -1.296875 0.6875q-0.5625 0.671875 -0.5625 1.984375zm5.7562256 -3.40625l5.484375 0l0 0.9375l-2.171875 0l0 5.796875l-1.140625 0l0 -5.796875l-2.171875 0l0 -0.9375zm5.870056 6.890625l2.703125 -9.625l0.90625 0l-2.6875 9.625l-0.921875 0zm6.046692 -3.203125l0 -0.890625q0.734375 -0.015625 0.984375 -0.0625q0.265625 -0.046875 0.5 -0.296875q0.234375 -0.265625 0.234375 -0.640625q0 -0.46875 -0.3125 -0.734375q-0.296875 -0.28125 -0.78125 -0.28125q-0.96875 0 -1.359375 1.140625l-1.078125 -0.1875q0.5 -1.890625 2.453125 -1.890625q1.078125 0 1.6875 0.59375q0.609375 0.578125 0.609375 1.40625q0 0.828125 -0.796875 1.3125q0.5 0.265625 0.75 0.6875q0.265625 0.421875 0.265625 1.0q0 0.90625 -0.671875 1.484375q-0.65625 0.5625 -1.84375 0.5625q-2.296875 0 -2.671875 -2.046875l1.078125 -0.234375q0.140625 0.640625 0.59375 1.0q0.453125 0.359375 1.03125 0.359375q0.578125 0 0.953125 -0.328125q0.390625 -0.328125 0.390625 -0.84375q0 -0.390625 -0.25 -0.671875q-0.234375 -0.296875 -0.515625 -0.359375q-0.265625 -0.078125 -0.984375 -0.078125q-0.0625 0 -0.265625 0zm9.017151 2.21875q-0.625 0.53125 -1.21875 0.765625q-0.578125 0.21875 -1.25 0.21875q-1.125 0 -1.71875 -0.546875q-0.59375 -0.546875 -0.59375 -1.390625q0 -0.484375 0.21875 -0.890625q0.234375 -0.421875 0.59375 -0.671875q0.375 -0.25 0.828125 -0.375q0.328125 -0.078125 1.015625 -0.171875q1.375 -0.15625 2.03125 -0.390625q0.015625 -0.234375 0.015625 -0.296875q0 -0.703125 -0.328125 -0.984375q-0.4375 -0.390625 -1.296875 -0.390625q-0.8125 0 -1.203125 0.28125q-0.375 0.28125 -0.5625 1.0l-1.109375 -0.140625q0.140625 -0.71875 0.484375 -1.15625q0.359375 -0.453125 1.015625 -0.6875q0.671875 -0.234375 1.53125 -0.234375q0.875 0 1.40625 0.203125q0.546875 0.203125 0.796875 0.515625q0.25 0.296875 0.359375 0.765625q0.046875 0.296875 0.046875 1.0625l0 1.515625q0 1.59375 0.078125 2.015625q0.078125 0.421875 0.28125 0.8125l-1.1875 0q-0.171875 -0.359375 -0.234375 -0.828125zm-0.09375 -2.5625q-0.625 0.265625 -1.859375 0.4375q-0.703125 0.109375 -1.0 0.234375q-0.296875 0.125 -0.453125 0.375q-0.15625 0.234375 -0.15625 0.53125q0 0.453125 0.34375 0.765625q0.34375 0.296875 1.015625 0.296875q0.65625 0 1.171875 -0.28125q0.515625 -0.296875 0.765625 -0.796875q0.171875 -0.375 0.171875 -1.140625l0 -0.421875zm3.1156006 -3.34375l3.875 0l0 0.9375l-2.734375 0l0 5.796875l-1.140625 0l0 -6.734375zm4.814514 9.328125l-0.140625 -1.0625q0.375 0.09375 0.65625 0.09375q0.390625 0 0.609375 -0.125q0.234375 -0.125 0.375 -0.359375q0.109375 -0.171875 0.359375 -0.84375q0.03125 -0.09375 0.09375 -0.28125l-2.5625 -6.75l1.234375 0l1.40625 3.890625q0.265625 0.75 0.484375 1.5625q0.203125 -0.78125 0.46875 -1.53125l1.453125 -3.921875l1.140625 0l-2.5625 6.84375q-0.421875 1.109375 -0.640625 1.53125q-0.3125 0.5625 -0.703125 0.828125q-0.390625 0.265625 -0.9375 0.265625q-0.328125 0 -0.734375 -0.140625zm11.6484375 -12.125l1.015625 0.015625q-0.078125 0.671875 -0.3125 0.953125q-0.234375 0.265625 -0.59375 0.34375q-0.359375 0.0625 -1.4375 0.0625q-1.40625 0 -1.921875 0.28125q-0.515625 0.265625 -0.75 0.875q-0.21875 0.59375 -0.234375 1.546875q0.421875 -0.640625 1.0 -0.953125q0.578125 -0.328125 1.296875 -0.328125q1.328125 0 2.203125 0.90625q0.875 0.90625 0.875 2.46875q0 1.171875 -0.4375 1.9375q-0.4375 0.75 -1.046875 1.171875q-0.59375 0.40625 -1.625 0.40625q-1.203125 0 -1.875 -0.546875q-0.671875 -0.5625 -1.03125 -1.40625q-0.34375 -0.859375 -0.34375 -2.984375q0 -2.671875 0.90625 -3.59375q0.90625 -0.9375 2.78125 -0.9375q1.171875 0 1.328125 -0.03125q0.15625 -0.046875 0.203125 -0.1875zm-0.0625 6.140625q0 -1.0625 -0.5 -1.734375q-0.5 -0.671875 -1.40625 -0.671875q-0.9375 0 -1.453125 0.71875q-0.515625 0.703125 -0.515625 1.890625q0 1.171875 0.5625 1.796875q0.578125 0.625 1.40625 0.625q0.84375 0 1.375 -0.71875q0.53125 -0.71875 0.53125 -1.90625zm2.758789 -3.34375l2.640625 0q0.96875 0 1.4375 0.15625q0.484375 0.15625 0.8125 0.59375q0.34375 0.4375 0.34375 1.03125q0 0.484375 -0.203125 0.84375q-0.203125 0.359375 -0.59375 0.59375q0.46875 0.15625 0.78125 0.59375q0.328125 0.4375 0.328125 1.03125q-0.078125 0.96875 -0.703125 1.4375q-0.609375 0.453125 -1.796875 0.453125l-3.046875 0l0 -6.734375zm1.140625 2.828125l1.21875 0q0.734375 0 1.0 -0.078125q0.28125 -0.078125 0.5 -0.296875q0.21875 -0.234375 0.21875 -0.5625q0 -0.53125 -0.390625 -0.734375q-0.375 -0.21875 -1.28125 -0.21875l-1.265625 0l0 1.890625zm0 2.96875l1.515625 0q0.96875 0 1.328125 -0.21875q0.359375 -0.234375 0.375 -0.78125q0 -0.328125 -0.203125 -0.59375q-0.203125 -0.28125 -0.546875 -0.359375q-0.34375 -0.078125 -1.078125 -0.078125l-1.390625 0l0 2.03125zm10.330566 0.109375q-0.625 0.53125 -1.21875 0.765625q-0.578125 0.21875 -1.25 0.21875q-1.125 0 -1.71875 -0.546875q-0.59375 -0.546875 -0.59375 -1.390625q0 -0.484375 0.21875 -0.890625q0.234375 -0.421875 0.59375 -0.671875q0.375 -0.25 0.828125 -0.375q0.328125 -0.078125 1.015625 -0.171875q1.375 -0.15625 2.03125 -0.390625q0.015625 -0.234375 0.015625 -0.296875q0 -0.703125 -0.328125 -0.984375q-0.4375 -0.390625 -1.296875 -0.390625q-0.8125 0 -1.203125 0.28125q-0.375 0.28125 -0.5625 1.0l-1.109375 -0.140625q0.140625 -0.71875 0.484375 -1.15625q0.359375 -0.453125 1.015625 -0.6875q0.671875 -0.234375 1.53125 -0.234375q0.875 0 1.40625 0.203125q0.546875 0.203125 0.796875 0.515625q0.25 0.296875 0.359375 0.765625q0.046875 0.296875 0.046875 1.0625l0 1.515625q0 1.59375 0.078125 2.015625q0.078125 0.421875 0.28125 0.8125l-1.1875 0q-0.171875 -0.359375 -0.234375 -0.828125zm-0.09375 -2.5625q-0.625 0.265625 -1.859375 0.4375q-0.703125 0.109375 -1.0 0.234375q-0.296875 0.125 -0.453125 0.375q-0.15625 0.234375 -0.15625 0.53125q0 0.453125 0.34375 0.765625q0.34375 0.296875 1.015625 0.296875q0.65625 0 1.171875 -0.28125q0.515625 -0.296875 0.765625 -0.796875q0.171875 -0.375 0.171875 -1.140625l0 -0.421875zm3.1156006 -3.34375l1.140625 0l0 2.796875l3.171875 0l0 -2.796875l1.140625 0l0 6.734375l-1.140625 0l0 -2.984375l-3.171875 0l0 2.984375l-1.140625 0l0 -6.734375zm11.969788 4.5625l1.1875 0.140625q-0.28125 1.046875 -1.046875 1.625q-0.75 0.5625 -1.921875 0.5625q-1.484375 0 -2.359375 -0.90625q-0.859375 -0.921875 -0.859375 -2.5625q0 -1.703125 0.875 -2.640625q0.890625 -0.9375 2.28125 -0.9375q1.359375 0 2.203125 0.921875q0.859375 0.921875 0.859375 2.578125q0 0.109375 0 0.3125l-5.03125 0q0.0625 1.109375 0.625 1.703125q0.5625 0.59375 1.40625 0.59375q0.640625 0 1.078125 -0.328125q0.453125 -0.34375 0.703125 -1.0625zm-3.75 -1.84375l3.765625 0q-0.078125 -0.859375 -0.4375 -1.28125q-0.546875 -0.65625 -1.40625 -0.65625q-0.796875 0 -1.328125 0.53125q-0.53125 0.515625 -0.59375 1.40625zm10.2560425 -2.71875l1.140625 0l0 2.796875l3.171875 0l0 -2.796875l1.140625 0l0 6.734375l-1.140625 0l0 -2.984375l-3.171875 0l0 2.984375l-1.140625 0l0 -6.734375zm11.751038 5.90625q-0.625 0.53125 -1.21875 0.765625q-0.578125 0.21875 -1.25 0.21875q-1.125 0 -1.71875 -0.546875q-0.59375 -0.546875 -0.59375 -1.390625q0 -0.484375 0.21875 -0.890625q0.234375 -0.421875 0.59375 -0.671875q0.375 -0.25 0.828125 -0.375q0.328125 -0.078125 1.015625 -0.171875q1.375 -0.15625 2.03125 -0.390625q0.015625 -0.234375 0.015625 -0.296875q0 -0.703125 -0.328125 -0.984375q-0.4375 -0.390625 -1.296875 -0.390625q-0.8125 0 -1.203125 0.28125q-0.375 0.28125 -0.5625 1.0l-1.109375 -0.140625q0.140625 -0.71875 0.484375 -1.15625q0.359375 -0.453125 1.015625 -0.6875q0.671875 -0.234375 1.53125 -0.234375q0.875 0 1.40625 0.203125q0.546875 0.203125 0.796875 0.515625q0.25 0.296875 0.359375 0.765625q0.046875 0.296875 0.046875 1.0625l0 1.515625q0 1.59375 0.078125 2.015625q0.078125 0.421875 0.28125 0.8125l-1.1875 0q-0.171875 -0.359375 -0.234375 -0.828125zm-0.09375 -2.5625q-0.625 0.265625 -1.859375 0.4375q-0.703125 0.109375 -1.0 0.234375q-0.296875 0.125 -0.453125 0.375q-0.15625 0.234375 -0.15625 0.53125q0 0.453125 0.34375 0.765625q0.34375 0.296875 1.015625 0.296875q0.65625 0 1.171875 -0.28125q0.515625 -0.296875 0.765625 -0.796875q0.171875 -0.375 0.171875 -1.140625l0 -0.421875z" fill-rule="nonzero"></path><path fill="#000000" d="m560.15564 606.42523l5.484375 0l0 0.9375l-2.171875 0l0 5.796875l-1.140625 0l0 -5.796875l-2.171875 0l0 -0.9375zm11.338745 4.5625l1.1875 0.140625q-0.28125 1.046875 -1.046875 1.625q-0.75 0.5625 -1.921875 0.5625q-1.484375 0 -2.359375 -0.90625q-0.859375 -0.921875 -0.859375 -2.5625q0 -1.703125 0.875 -2.640625q0.890625 -0.9375 2.28125 -0.9375q1.359375 0 2.203125 0.921875q0.859375 0.921875 0.859375 2.578125q0 0.109375 0 0.3125l-5.03125 0q0.0625 1.109375 0.625 1.703125q0.5625 0.59375 1.40625 0.59375q0.640625 0 1.078125 -0.328125q0.453125 -0.34375 0.703125 -1.0625zm-3.75 -1.84375l3.765625 0q-0.078125 -0.859375 -0.4375 -1.28125q-0.546875 -0.65625 -1.40625 -0.65625q-0.796875 0 -1.328125 0.53125q-0.53125 0.515625 -0.59375 1.40625zm7.1156006 -2.71875l5.296875 0l0 6.734375l-1.125 0l0 -5.796875l-3.03125 0l0 3.359375q0 1.171875 -0.078125 1.546875q-0.078125 0.375 -0.421875 0.65625q-0.34375 0.28125 -0.984375 0.28125q-0.40625 0 -0.921875 -0.046875l0 -0.953125l0.5 0q0.359375 0 0.5 -0.078125q0.15625 -0.078125 0.203125 -0.234375q0.0625 -0.15625 0.0625 -1.03125l0 -4.4375zm11.8237915 4.5625l1.1875 0.140625q-0.28125 1.046875 -1.046875 1.625q-0.75 0.5625 -1.921875 0.5625q-1.484375 0 -2.359375 -0.90625q-0.859375 -0.921875 -0.859375 -2.5625q0 -1.703125 0.875 -2.640625q0.890625 -0.9375 2.28125 -0.9375q1.359375 0 2.203125 0.921875q0.859375 0.921875 0.859375 2.578125q0 0.109375 0 0.3125l-5.03125 0q0.0625 1.109375 0.625 1.703125q0.5625 0.59375 1.40625 0.59375q0.640625 0 1.078125 -0.328125q0.453125 -0.34375 0.703125 -1.0625zm-3.75 -1.84375l3.765625 0q-0.078125 -0.859375 -0.4375 -1.28125q-0.546875 -0.65625 -1.40625 -0.65625q-0.796875 0 -1.328125 0.53125q-0.53125 0.515625 -0.59375 1.40625zm10.474976 -5.296875l1.140625 0l0 3.21875q0.359375 -0.40625 0.78125 -0.59375q0.421875 -0.203125 0.921875 -0.203125q1.1875 0 1.890625 1.0q0.703125 1.0 0.703125 2.515625q0 1.578125 -0.765625 2.5625q-0.75 0.96875 -1.875 0.96875q-0.359375 0 -0.75 -0.125q-0.375 -0.109375 -0.90625 -0.609375l0 3.15625l-1.140625 0l0 -3.15625q-0.34375 0.359375 -0.765625 0.546875q-0.40625 0.1875 -0.890625 0.1875q-1.0625 0 -1.859375 -0.921875q-0.796875 -0.9375 -0.796875 -2.671875q0 -1.46875 0.71875 -2.453125q0.71875 -1.0 1.9375 -1.0q0.5 0 0.90625 0.203125q0.421875 0.1875 0.75 0.59375l0 -3.21875zm1.140625 5.96875q0 1.515625 0.40625 2.046875q0.421875 0.515625 1.046875 0.515625q0.703125 0 1.1875 -0.640625q0.5 -0.640625 0.5 -2.0q0 -1.28125 -0.453125 -1.90625q-0.453125 -0.625 -1.15625 -0.625q-0.765625 0 -1.15625 0.65625q-0.375 0.640625 -0.375 1.953125zm-4.28125 -0.125q0 1.421875 0.46875 2.0625q0.484375 0.625 1.203125 0.625q0.734375 0 1.09375 -0.625q0.375 -0.625 0.375 -1.875q0 -1.34375 -0.390625 -2.0q-0.375 -0.671875 -1.15625 -0.671875q-0.703125 0 -1.15625 0.65625q-0.4375 0.640625 -0.4375 1.828125zm9.762634 0.09375q0 -1.875 1.03125 -2.765625q0.875 -0.75 2.125 -0.75q1.390625 0 2.265625 0.90625q0.890625 0.90625 0.890625 2.515625q0 1.296875 -0.390625 2.046875q-0.390625 0.75 -1.140625 1.171875q-0.75 0.40625 -1.625 0.40625q-1.421875 0 -2.296875 -0.90625q-0.859375 -0.90625 -0.859375 -2.625zm1.171875 0q0 1.296875 0.5625 1.953125q0.5625 0.640625 1.421875 0.640625q0.84375 0 1.40625 -0.640625q0.578125 -0.65625 0.578125 -1.984375q0 -1.25 -0.578125 -1.890625q-0.5625 -0.65625 -1.40625 -0.65625q-0.859375 0 -1.421875 0.640625q-0.5625 0.640625 -0.5625 1.9375zm6.6624756 -3.359375l1.140625 0l0 2.796875l3.171875 0l0 -2.796875l1.140625 0l0 6.734375l-1.140625 0l0 -2.984375l-3.171875 0l0 2.984375l-1.140625 0l0 -6.734375zm13.250916 9.46875q-0.953125 -1.1875 -1.609375 -2.78125q-0.65625 -1.609375 -0.65625 -3.328125q0 -1.5 0.5 -2.890625q0.5625 -1.609375 1.765625 -3.203125l0.8125 0q-0.765625 1.328125 -1.015625 1.890625q-0.390625 0.875 -0.609375 1.828125q-0.265625 1.1875 -0.265625 2.390625q0 3.046875 1.890625 6.09375l-0.8125 0zm2.2508545 -9.46875l5.328125 0l0 6.734375l-1.140625 0l0 -5.796875l-3.046875 0l0 5.796875l-1.140625 0l0 -6.734375zm6.79541 3.359375q0 -1.875 1.03125 -2.765625q0.875 -0.75 2.125 -0.75q1.390625 0 2.265625 0.90625q0.890625 0.90625 0.890625 2.515625q0 1.296875 -0.390625 2.046875q-0.390625 0.75 -1.140625 1.171875q-0.75 0.40625 -1.625 0.40625q-1.421875 0 -2.296875 -0.90625q-0.859375 -0.90625 -0.859375 -2.625zm1.171875 0q0 1.296875 0.5625 1.953125q0.5625 0.640625 1.421875 0.640625q0.84375 0 1.40625 -0.640625q0.578125 -0.65625 0.578125 -1.984375q0 -1.25 -0.578125 -1.890625q-0.5625 -0.65625 -1.40625 -0.65625q-0.859375 0 -1.421875 0.640625q-0.5625 0.640625 -0.5625 1.9375zm7.2249756 -3.359375l5.296875 0l0 6.734375l-1.125 0l0 -5.796875l-3.03125 0l0 3.359375q0 1.171875 -0.078125 1.546875q-0.078125 0.375 -0.421875 0.65625q-0.34375 0.28125 -0.984375 0.28125q-0.40625 0 -0.921875 -0.046875l0 -0.953125l0.5 0q0.359375 0 0.5 -0.078125q0.15625 -0.078125 0.203125 -0.234375q0.0625 -0.15625 0.0625 -1.03125l0 -4.4375zm6.7925415 3.359375q0 -1.875 1.03125 -2.765625q0.875 -0.75 2.125 -0.75q1.390625 0 2.265625 0.90625q0.890625 0.90625 0.890625 2.515625q0 1.296875 -0.390625 2.046875q-0.390625 0.75 -1.140625 1.171875q-0.75 0.40625 -1.625 0.40625q-1.421875 0 -2.296875 -0.90625q-0.859375 -0.90625 -0.859375 -2.625zm1.171875 0q0 1.296875 0.5625 1.953125q0.5625 0.640625 1.421875 0.640625q0.84375 0 1.40625 -0.640625q0.578125 -0.65625 0.578125 -1.984375q0 -1.25 -0.578125 -1.890625q-0.5625 -0.65625 -1.40625 -0.65625q-0.859375 0 -1.421875 0.640625q-0.5625 0.640625 -0.5625 1.9375zm10.740601 -3.359375l0 2.90625q0.546875 0 0.765625 -0.203125q0.21875 -0.21875 0.640625 -1.21875q0.40625 -0.96875 0.71875 -1.234375q0.3125 -0.25 1.0 -0.25l0.40625 0l0 0.9375l-0.3125 0q-0.453125 0 -0.578125 0.125q-0.125 0.140625 -0.40625 0.828125q-0.25 0.671875 -0.46875 0.921875q-0.21875 0.25 -0.671875 0.46875q0.734375 0.1875 1.453125 1.359375l1.25 2.09375l-1.25 0l-1.234375 -2.09375q-0.375 -0.625 -0.65625 -0.8125q-0.28125 -0.203125 -0.65625 -0.203125l0 3.109375l-1.171875 0l0 -3.109375q-0.375 0 -0.65625 0.1875q-0.28125 0.1875 -0.65625 0.828125l-1.234375 2.09375l-1.25 0l1.25 -2.09375q0.71875 -1.171875 1.453125 -1.359375q-0.5 -0.234375 -0.703125 -0.515625q-0.203125 -0.28125 -0.609375 -1.3125q-0.140625 -0.359375 -0.3125 -0.4375q-0.15625 -0.078125 -0.484375 -0.078125q-0.078125 0 -0.328125 0l0 -0.9375l0.15625 0q0.65625 0 0.921875 0.078125q0.28125 0.078125 0.484375 0.34375q0.21875 0.25 0.5625 1.0625q0.421875 0.984375 0.640625 1.203125q0.21875 0.21875 0.765625 0.21875l0 -2.90625l1.171875 0zm4.8376465 0l1.140625 0l0 5.140625l3.171875 -5.140625l1.234375 0l0 6.734375l-1.15625 0l0 -5.109375l-3.15625 5.109375l-1.234375 0l0 -6.734375zm11.14801 0l1.140625 0l0 2.796875l3.171875 0l0 -2.796875l1.140625 0l0 6.734375l-1.140625 0l0 -2.984375l-3.171875 0l0 2.984375l-1.140625 0l0 -6.734375zm7.3135376 9.328125l-0.140625 -1.0625q0.375 0.09375 0.65625 0.09375q0.390625 0 0.609375 -0.125q0.234375 -0.125 0.375 -0.359375q0.109375 -0.171875 0.359375 -0.84375q0.03125 -0.09375 0.09375 -0.28125l-2.5625 -6.75l1.234375 0l1.40625 3.890625q0.265625 0.75 0.484375 1.5625q0.203125 -0.78125 0.46875 -1.53125l1.453125 -3.921875l1.140625 0l-2.5625 6.84375q-0.421875 1.109375 -0.640625 1.53125q-0.3125 0.5625 -0.703125 0.828125q-0.390625 0.265625 -0.9375 0.265625q-0.328125 0 -0.734375 -0.140625zm10.7890625 -9.328125l0 2.90625q0.546875 0 0.765625 -0.203125q0.21875 -0.21875 0.640625 -1.21875q0.40625 -0.96875 0.71875 -1.234375q0.3125 -0.25 1.0 -0.25l0.40625 0l0 0.9375l-0.3125 0q-0.453125 0 -0.578125 0.125q-0.125 0.140625 -0.40625 0.828125q-0.25 0.671875 -0.46875 0.921875q-0.21875 0.25 -0.671875 0.46875q0.734375 0.1875 1.453125 1.359375l1.25 2.09375l-1.25 0l-1.234375 -2.09375q-0.375 -0.625 -0.65625 -0.8125q-0.28125 -0.203125 -0.65625 -0.203125l0 3.109375l-1.171875 0l0 -3.109375q-0.375 0 -0.65625 0.1875q-0.28125 0.1875 -0.65625 0.828125l-1.234375 2.09375l-1.25 0l1.25 -2.09375q0.71875 -1.171875 1.453125 -1.359375q-0.5 -0.234375 -0.703125 -0.515625q-0.203125 -0.28125 -0.609375 -1.3125q-0.140625 -0.359375 -0.3125 -0.4375q-0.15625 -0.078125 -0.484375 -0.078125q-0.078125 0 -0.328125 0l0 -0.9375l0.15625 0q0.65625 0 0.921875 0.078125q0.28125 0.078125 0.484375 0.34375q0.21875 0.25 0.5625 1.0625q0.421875 0.984375 0.640625 1.203125q0.21875 0.21875 0.765625 0.21875l0 -2.90625l1.171875 0zm4.8376465 0l1.140625 0l0 2.796875l3.171875 0l0 -2.796875l1.140625 0l0 6.734375l-1.140625 0l0 -2.984375l-3.171875 0l0 2.984375l-1.140625 0l0 -6.734375zm7.3604126 0l1.140625 0l0 5.140625l3.171875 -5.140625l1.234375 0l0 6.734375l-1.15625 0l0 -5.109375l-3.15625 5.109375l-1.234375 0l0 -6.734375zm6.8200073 0l5.484375 0l0 0.9375l-2.171875 0l0 5.796875l-1.140625 0l0 -5.796875l-2.171875 0l0 -0.9375zm11.338745 4.5625l1.1875 0.140625q-0.28125 1.046875 -1.046875 1.625q-0.75 0.5625 -1.921875 0.5625q-1.484375 0 -2.359375 -0.90625q-0.859375 -0.921875 -0.859375 -2.5625q0 -1.703125 0.875 -2.640625q0.890625 -0.9375 2.28125 -0.9375q1.359375 0 2.203125 0.921875q0.859375 0.921875 0.859375 2.578125q0 0.109375 0 0.3125l-5.03125 0q0.0625 1.109375 0.625 1.703125q0.5625 0.59375 1.40625 0.59375q0.640625 0 1.078125 -0.328125q0.453125 -0.34375 0.703125 -1.0625zm-3.75 -1.84375l3.765625 0q-0.078125 -0.859375 -0.4375 -1.28125q-0.546875 -0.65625 -1.40625 -0.65625q-0.796875 0 -1.328125 0.53125q-0.53125 0.515625 -0.59375 1.40625z" fill-rule="nonzero"></path><path fill="#000000" d="m560.8119 622.42523l1.78125 0l1.765625 5.390625l1.96875 -5.390625l1.640625 0l0 6.734375l-1.140625 0l0 -5.421875l-2.0 5.421875l-1.015625 0l-1.890625 -5.6875l0 5.6875l-1.109375 0l0 -6.734375zm13.522461 5.90625q-0.625 0.53125 -1.21875 0.765625q-0.578125 0.21875 -1.25 0.21875q-1.125 0 -1.71875 -0.546875q-0.59375 -0.546875 -0.59375 -1.390625q0 -0.484375 0.21875 -0.890625q0.234375 -0.421875 0.59375 -0.671875q0.375 -0.25 0.828125 -0.375q0.328125 -0.078125 1.015625 -0.171875q1.375 -0.15625 2.03125 -0.390625q0.015625 -0.234375 0.015625 -0.296875q0 -0.703125 -0.328125 -0.984375q-0.4375 -0.390625 -1.296875 -0.390625q-0.8125 0 -1.203125 0.28125q-0.375 0.28125 -0.5625 1.0l-1.109375 -0.140625q0.140625 -0.71875 0.484375 -1.15625q0.359375 -0.453125 1.015625 -0.6875q0.671875 -0.234375 1.53125 -0.234375q0.875 0 1.40625 0.203125q0.546875 0.203125 0.796875 0.515625q0.25 0.296875 0.359375 0.765625q0.046875 0.296875 0.046875 1.0625l0 1.515625q0 1.59375 0.078125 2.015625q0.078125 0.421875 0.28125 0.8125l-1.1875 0q-0.171875 -0.359375 -0.234375 -0.828125zm-0.09375 -2.5625q-0.625 0.265625 -1.859375 0.4375q-0.703125 0.109375 -1.0 0.234375q-0.296875 0.125 -0.453125 0.375q-0.15625 0.234375 -0.15625 0.53125q0 0.453125 0.34375 0.765625q0.34375 0.296875 1.015625 0.296875q0.65625 0 1.171875 -0.28125q0.515625 -0.296875 0.765625 -0.796875q0.171875 -0.375 0.171875 -1.140625l0 -0.421875zm3.6781006 -3.34375l5.296875 0l0 6.734375l-1.125 0l0 -5.796875l-3.03125 0l0 3.359375q0 1.171875 -0.078125 1.546875q-0.078125 0.375 -0.421875 0.65625q-0.34375 0.28125 -0.984375 0.28125q-0.40625 0 -0.921875 -0.046875l0 -0.953125l0.5 0q0.359375 0 0.5 -0.078125q0.15625 -0.078125 0.203125 -0.234375q0.0625 -0.15625 0.0625 -1.03125l0 -4.4375zm7.1987915 0l1.15625 0l0 2.90625q0.546875 0 0.765625 -0.203125q0.21875 -0.21875 0.640625 -1.21875q0.328125 -0.8125 0.53125 -1.0625q0.21875 -0.25 0.484375 -0.328125q0.28125 -0.09375 0.890625 -0.09375l0.21875 0l0 0.9375l-0.3125 0q-0.453125 0 -0.578125 0.125q-0.140625 0.140625 -0.40625 0.828125q-0.265625 0.671875 -0.484375 0.921875q-0.203125 0.25 -0.65625 0.46875q0.734375 0.1875 1.4375 1.359375l1.265625 2.09375l-1.265625 0l-1.21875 -2.09375q-0.375 -0.625 -0.65625 -0.8125q-0.28125 -0.203125 -0.65625 -0.203125l0 3.109375l-1.15625 0l0 -6.734375zm5.8466797 0l1.140625 0l0 5.140625l3.171875 -5.140625l1.234375 0l0 6.734375l-1.15625 0l0 -5.109375l-3.15625 5.109375l-1.234375 0l0 -6.734375zm11.101135 9.328125l-0.140625 -1.0625q0.375 0.09375 0.65625 0.09375q0.390625 0 0.609375 -0.125q0.234375 -0.125 0.375 -0.359375q0.109375 -0.171875 0.359375 -0.84375q0.03125 -0.09375 0.09375 -0.28125l-2.5625 -6.75l1.234375 0l1.40625 3.890625q0.265625 0.75 0.484375 1.5625q0.203125 -0.78125 0.46875 -1.53125l1.453125 -3.921875l1.140625 0l-2.5625 6.84375q-0.421875 1.109375 -0.640625 1.53125q-0.3125 0.5625 -0.703125 0.828125q-0.390625 0.265625 -0.9375 0.265625q-0.328125 0 -0.734375 -0.140625zm11.1015625 -5.0625l1.125 0.140625q-0.171875 1.171875 -0.9375 1.828125q-0.765625 0.65625 -1.859375 0.65625q-1.390625 0 -2.234375 -0.90625q-0.828125 -0.90625 -0.828125 -2.59375q0 -1.09375 0.359375 -1.90625q0.359375 -0.828125 1.09375 -1.234375q0.734375 -0.40625 1.609375 -0.40625q1.09375 0 1.796875 0.5625q0.703125 0.546875 0.890625 1.5625l-1.109375 0.171875q-0.15625 -0.671875 -0.5625 -1.015625q-0.390625 -0.34375 -0.96875 -0.34375q-0.859375 0 -1.40625 0.625q-0.53125 0.609375 -0.53125 1.953125q0 1.359375 0.515625 1.984375q0.515625 0.609375 1.359375 0.609375q0.671875 0 1.125 -0.40625q0.453125 -0.421875 0.5625 -1.28125zm2.2734375 -4.265625l1.140625 0l0 5.140625l3.171875 -5.140625l1.234375 0l0 6.734375l-1.15625 0l0 -5.109375l-3.15625 5.109375l-1.234375 0l0 -6.734375zm8.007507 0l5.296875 0l0 6.734375l-1.125 0l0 -5.796875l-3.03125 0l0 3.359375q0 1.171875 -0.078125 1.546875q-0.078125 0.375 -0.421875 0.65625q-0.34375 0.28125 -0.984375 0.28125q-0.40625 0 -0.921875 -0.046875l0 -0.953125l0.5 0q0.359375 0 0.5 -0.078125q0.15625 -0.078125 0.203125 -0.234375q0.0625 -0.15625 0.0625 -1.03125l0 -4.4375zm7.2144165 0l1.140625 0l0 5.140625l3.171875 -5.140625l1.234375 0l0 6.734375l-1.15625 0l0 -5.109375l-3.15625 5.109375l-1.234375 0l0 -6.734375zm12.741882 0l0 6.734375l-1.125 0l0 -2.625l-0.65625 0q-0.609375 0 -0.90625 0.15625q-0.296875 0.15625 -0.859375 1.0l-1.0 1.46875l-1.40625 0l1.21875 -1.8125q0.578125 -0.828125 1.125 -0.9375q-0.96875 -0.140625 -1.453125 -0.703125q-0.46875 -0.578125 -0.46875 -1.328125q0 -0.875 0.609375 -1.40625q0.625 -0.546875 1.8125 -0.546875l3.109375 0zm-1.125 0.9375l-1.625 0q-1.03125 0 -1.328125 0.328125q-0.28125 0.3125 -0.28125 0.734375q0 0.609375 0.421875 0.890625q0.4375 0.28125 1.546875 0.28125l1.265625 0l0 -2.234375zm8.232727 2.75l0 -0.890625q0.734375 -0.015625 0.984375 -0.0625q0.265625 -0.046875 0.5 -0.296875q0.234375 -0.265625 0.234375 -0.640625q0 -0.46875 -0.3125 -0.734375q-0.296875 -0.28125 -0.78125 -0.28125q-0.96875 0 -1.359375 1.140625l-1.078125 -0.1875q0.5 -1.890625 2.453125 -1.890625q1.078125 0 1.6875 0.59375q0.609375 0.578125 0.609375 1.40625q0 0.828125 -0.796875 1.3125q0.5 0.265625 0.75 0.6875q0.265625 0.421875 0.265625 1.0q0 0.90625 -0.671875 1.484375q-0.65625 0.5625 -1.84375 0.5625q-2.296875 0 -2.671875 -2.046875l1.078125 -0.234375q0.140625 0.640625 0.59375 1.0q0.453125 0.359375 1.03125 0.359375q0.578125 0 0.953125 -0.328125q0.390625 -0.328125 0.390625 -0.84375q0 -0.390625 -0.25 -0.671875q-0.234375 -0.296875 -0.515625 -0.359375q-0.265625 -0.078125 -0.984375 -0.078125q-0.0625 0 -0.265625 0zm9.017151 2.21875q-0.625 0.53125 -1.21875 0.765625q-0.578125 0.21875 -1.25 0.21875q-1.125 0 -1.71875 -0.546875q-0.59375 -0.546875 -0.59375 -1.390625q0 -0.484375 0.21875 -0.890625q0.234375 -0.421875 0.59375 -0.671875q0.375 -0.25 0.828125 -0.375q0.328125 -0.078125 1.015625 -0.171875q1.375 -0.15625 2.03125 -0.390625q0.015625 -0.234375 0.015625 -0.296875q0 -0.703125 -0.328125 -0.984375q-0.4375 -0.390625 -1.296875 -0.390625q-0.8125 0 -1.203125 0.28125q-0.375 0.28125 -0.5625 1.0l-1.109375 -0.140625q0.140625 -0.71875 0.484375 -1.15625q0.359375 -0.453125 1.015625 -0.6875q0.671875 -0.234375 1.53125 -0.234375q0.875 0 1.40625 0.203125q0.546875 0.203125 0.796875 0.515625q0.25 0.296875 0.359375 0.765625q0.046875 0.296875 0.046875 1.0625l0 1.515625q0 1.59375 0.078125 2.015625q0.078125 0.421875 0.28125 0.8125l-1.1875 0q-0.171875 -0.359375 -0.234375 -0.828125zm-0.09375 -2.5625q-0.625 0.265625 -1.859375 0.4375q-0.703125 0.109375 -1.0 0.234375q-0.296875 0.125 -0.453125 0.375q-0.15625 0.234375 -0.15625 0.53125q0 0.453125 0.34375 0.765625q0.34375 0.296875 1.015625 0.296875q0.65625 0 1.171875 -0.28125q0.515625 -0.296875 0.765625 -0.796875q0.171875 -0.375 0.171875 -1.140625l0 -0.421875zm6.1935425 -3.34375l5.484375 0l0 0.9375l-2.171875 0l0 5.796875l-1.140625 0l0 -5.796875l-2.171875 0l0 -0.9375zm6.307556 3.359375q0 -1.875 1.03125 -2.765625q0.875 -0.75 2.125 -0.75q1.390625 0 2.265625 0.90625q0.890625 0.90625 0.890625 2.515625q0 1.296875 -0.390625 2.046875q-0.390625 0.75 -1.140625 1.171875q-0.75 0.40625 -1.625 0.40625q-1.421875 0 -2.296875 -0.90625q-0.859375 -0.90625 -0.859375 -2.625zm1.171875 0q0 1.296875 0.5625 1.953125q0.5625 0.640625 1.421875 0.640625q0.84375 0 1.40625 -0.640625q0.578125 -0.65625 0.578125 -1.984375q0 -1.25 -0.578125 -1.890625q-0.5625 -0.65625 -1.40625 -0.65625q-0.859375 0 -1.421875 0.640625q-0.5625 0.640625 -0.5625 1.9375zm6.6624756 -3.359375l2.640625 0q0.96875 0 1.4375 0.15625q0.484375 0.15625 0.8125 0.59375q0.34375 0.4375 0.34375 1.03125q0 0.484375 -0.203125 0.84375q-0.203125 0.359375 -0.59375 0.59375q0.46875 0.15625 0.78125 0.59375q0.328125 0.4375 0.328125 1.03125q-0.078125 0.96875 -0.703125 1.4375q-0.609375 0.453125 -1.796875 0.453125l-3.046875 0l0 -6.734375zm1.140625 2.828125l1.21875 0q0.734375 0 1.0 -0.078125q0.28125 -0.078125 0.5 -0.296875q0.21875 -0.234375 0.21875 -0.5625q0 -0.53125 -0.390625 -0.734375q-0.375 -0.21875 -1.28125 -0.21875l-1.265625 0l0 1.890625zm0 2.96875l1.515625 0q0.96875 0 1.328125 -0.21875q0.359375 -0.234375 0.375 -0.78125q0 -0.328125 -0.203125 -0.59375q-0.203125 -0.28125 -0.546875 -0.359375q-0.34375 -0.078125 -1.078125 -0.078125l-1.390625 0l0 2.03125zm10.330566 0.109375q-0.625 0.53125 -1.21875 0.765625q-0.578125 0.21875 -1.25 0.21875q-1.125 0 -1.71875 -0.546875q-0.59375 -0.546875 -0.59375 -1.390625q0 -0.484375 0.21875 -0.890625q0.234375 -0.421875 0.59375 -0.671875q0.375 -0.25 0.828125 -0.375q0.328125 -0.078125 1.015625 -0.171875q1.375 -0.15625 2.03125 -0.390625q0.015625 -0.234375 0.015625 -0.296875q0 -0.703125 -0.328125 -0.984375q-0.4375 -0.390625 -1.296875 -0.390625q-0.8125 0 -1.203125 0.28125q-0.375 0.28125 -0.5625 1.0l-1.109375 -0.140625q0.140625 -0.71875 0.484375 -1.15625q0.359375 -0.453125 1.015625 -0.6875q0.671875 -0.234375 1.53125 -0.234375q0.875 0 1.40625 0.203125q0.546875 0.203125 0.796875 0.515625q0.25 0.296875 0.359375 0.765625q0.046875 0.296875 0.046875 1.0625l0 1.515625q0 1.59375 0.078125 2.015625q0.078125 0.421875 0.28125 0.8125l-1.1875 0q-0.171875 -0.359375 -0.234375 -0.828125zm-0.09375 -2.5625q-0.625 0.265625 -1.859375 0.4375q-0.703125 0.109375 -1.0 0.234375q-0.296875 0.125 -0.453125 0.375q-0.15625 0.234375 -0.15625 0.53125q0 0.453125 0.34375 0.765625q0.34375 0.296875 1.015625 0.296875q0.65625 0 1.171875 -0.28125q0.515625 -0.296875 0.765625 -0.796875q0.171875 -0.375 0.171875 -1.140625l0 -0.421875zm3.8656006 6.125l-0.828125 0q1.90625 -3.046875 1.90625 -6.09375q0 -1.203125 -0.28125 -2.375q-0.203125 -0.953125 -0.59375 -1.828125q-0.25 -0.5625 -1.03125 -1.90625l0.828125 0q1.1875 1.59375 1.765625 3.203125q0.484375 1.390625 0.484375 2.890625q0 1.71875 -0.65625 3.328125q-0.65625 1.59375 -1.59375 2.78125z" fill-rule="nonzero"></path><path fill="#000000" d="m51.595802 75.86877l0 0c0 -3.1310654 2.538227 -5.6692886 5.6692886 -5.6692886l0 0c1.5035896 0 2.9455986 0.59729767 4.0087967 1.660492c1.0631981 1.0632019 1.6604958 2.5052032 1.6604958 4.0087967l0 0c0 3.1310654 -2.538227 5.6692886 -5.6692924 5.6692886l0 0c-3.1310616 0 -5.6692886 -2.5382233 -5.6692886 -5.6692886z" fill-rule="evenodd"></path><path stroke="#000000" stroke-width="1.0" stroke-linejoin="round" stroke-linecap="butt" d="m51.595802 75.86877l0 0c0 -3.1310654 2.538227 -5.6692886 5.6692886 -5.6692886l0 0c1.5035896 0 2.9455986 0.59729767 4.0087967 1.660492c1.0631981 1.0632019 1.6604958 2.5052032 1.6604958 4.0087967l0 0c0 3.1310654 -2.538227 5.6692886 -5.6692924 5.6692886l0 0c-3.1310616 0 -5.6692886 -2.5382233 -5.6692886 -5.6692886z" fill-rule="evenodd"></path><path fill="#000000" fill-opacity="0.0" d="m51.595802 70.19948l191.52756 0l0 48.44094l-191.52756 0z" fill-rule="evenodd"></path><path fill="#000000" d="m61.580177 91.99947l0 -9.3125l1.265625 0l4.890625 7.3125l0 -7.3125l1.1875 0l0 9.3125l-1.265625 0l-4.890625 -7.3125l0 7.3125l-1.1875 0zm9.218903 -2.984375l1.171875 -0.109375q0.078125 0.703125 0.375 1.15625q0.3125 0.4375 0.9375 0.71875q0.640625 0.265625 1.4375 0.265625q0.703125 0 1.234375 -0.203125q0.546875 -0.203125 0.8125 -0.5625q0.265625 -0.375 0.265625 -0.8125q0 -0.4375 -0.265625 -0.765625q-0.25 -0.328125 -0.828125 -0.546875q-0.375 -0.140625 -1.65625 -0.453125q-1.28125 -0.3125 -1.796875 -0.578125q-0.671875 -0.34375 -1.0 -0.859375q-0.328125 -0.53125 -0.328125 -1.171875q0 -0.703125 0.390625 -1.3125q0.40625 -0.609375 1.171875 -0.921875q0.78125 -0.328125 1.71875 -0.328125q1.03125 0 1.8125 0.34375q0.796875 0.328125 1.21875 0.984375q0.4375 0.640625 0.46875 1.453125l-1.1875 0.09375q-0.09375 -0.890625 -0.640625 -1.328125q-0.546875 -0.453125 -1.625 -0.453125q-1.109375 0 -1.625 0.40625q-0.515625 0.40625 -0.515625 0.984375q0 0.5 0.359375 0.828125q0.359375 0.328125 1.859375 0.671875q1.5 0.328125 2.0625 0.578125q0.8125 0.375 1.1875 0.953125q0.390625 0.578125 0.390625 1.328125q0 0.734375 -0.421875 1.390625q-0.421875 0.65625 -1.21875 1.03125q-0.796875 0.359375 -1.796875 0.359375q-1.265625 0 -2.125 -0.359375q-0.84375 -0.375 -1.328125 -1.109375q-0.484375 -0.75 -0.515625 -1.671875zm8.296005 2.984375l3.578125 -9.3125l1.3125 0l3.8125 9.3125l-1.40625 0l-1.078125 -2.8125l-3.890625 0l-1.03125 2.8125l-1.296875 0zm2.6875 -3.828125l3.15625 0l-0.984375 -2.578125q-0.4375 -1.171875 -0.65625 -1.921875q-0.171875 0.890625 -0.5 1.78125l-1.015625 2.71875z" fill-rule="nonzero"></path><path fill="#000000" d="m63.642677 110.73385q-0.953125 -1.1875 -1.609375 -2.78125q-0.65625 -1.609375 -0.65625 -3.328125q0 -1.5 0.5 -2.890625q0.5625 -1.609375 1.765625 -3.203125l0.8125 0q-0.765625 1.328125 -1.015625 1.890625q-0.390625 0.875 -0.609375 1.828125q-0.265625 1.1875 -0.265625 2.390625q0 3.046875 1.890625 6.09375l-0.8125 0zm2.2508698 -9.46875l1.140625 0l0 2.796875l3.171875 0l0 -2.796875l1.140625 0l0 6.734375l-1.140625 0l0 -2.984375l-3.171875 0l0 2.984375l-1.140625 0l0 -6.734375zm11.969788 4.5625l1.1875 0.140625q-0.28125 1.046875 -1.046875 1.625q-0.75 0.5625 -1.921875 0.5625q-1.484375 0 -2.359375 -0.90625q-0.859375 -0.921875 -0.859375 -2.5625q0 -1.703125 0.875 -2.640625q0.890625 -0.9375 2.28125 -0.9375q1.359375 0 2.203125 0.921875q0.859375 0.921875 0.859375 2.578125q0 0.109375 0 0.3125l-5.03125 0q0.0625 1.109375 0.625 1.703125q0.5625 0.59375 1.40625 0.59375q0.640625 0 1.078125 -0.328125q0.453125 -0.34375 0.703125 -1.0625zm-3.75 -1.84375l3.765625 0q-0.078125 -0.859375 -0.4375 -1.28125q-0.546875 -0.65625 -1.40625 -0.65625q-0.796875 0 -1.328125 0.53125q-0.53125 0.515625 -0.59375 1.40625zm14.646713 1.546875l1.125 0.140625q-0.171875 1.171875 -0.9375 1.828125q-0.765625 0.65625 -1.859375 0.65625q-1.390625 0 -2.234375 -0.90625q-0.828125 -0.90625 -0.828125 -2.59375q0 -1.09375 0.359375 -1.90625q0.359375 -0.828125 1.09375 -1.234375q0.734375 -0.40625 1.609375 -0.40625q1.09375 0 1.796875 0.5625q0.703125 0.546875 0.890625 1.5625l-1.109375 0.171875q-0.15625 -0.671875 -0.5625 -1.015625q-0.390625 -0.34375 -0.96875 -0.34375q-0.859375 0 -1.40625 0.625q-0.53125 0.609375 -0.53125 1.953125q0 1.359375 0.515625 1.984375q0.515625 0.609375 1.359375 0.609375q0.671875 0 1.125 -0.40625q0.453125 -0.421875 0.5625 -1.28125zm6.8828125 0.296875l1.1875 0.140625q-0.28125 1.046875 -1.046875 1.625q-0.75 0.5625 -1.921875 0.5625q-1.484375 0 -2.359375 -0.90625q-0.859375 -0.921875 -0.859375 -2.5625q0 -1.703125 0.875 -2.640625q0.890625 -0.9375 2.28125 -0.9375q1.359375 0 2.203125 0.921875q0.859375 0.921875 0.859375 2.578125q0 0.109375 0 0.3125l-5.03125 0q0.0625 1.109375 0.625 1.703125q0.5625 0.59375 1.40625 0.59375q0.640625 0 1.078125 -0.328125q0.453125 -0.34375 0.703125 -1.0625zm-3.75 -1.84375l3.765625 0q-0.078125 -0.859375 -0.4375 -1.28125q-0.546875 -0.65625 -1.40625 -0.65625q-0.796875 0 -1.328125 0.53125q-0.53125 0.515625 -0.59375 1.40625zm10.256088 -2.71875l2.640625 0q0.96875 0 1.4375 0.15625q0.484375 0.15625 0.8125 0.59375q0.34375 0.4375 0.34375 1.03125q0 0.484375 -0.203125 0.84375q-0.203125 0.359375 -0.59375 0.59375q0.46875 0.15625 0.78125 0.59375q0.328125 0.4375 0.328125 1.03125q-0.078125 0.96875 -0.703125 1.4375q-0.609375 0.453125 -1.796875 0.453125l-3.046875 0l0 -6.734375zm1.140625 2.828125l1.21875 0q0.734375 0 1.0 -0.078125q0.28125 -0.078125 0.5 -0.296875q0.21875 -0.234375 0.21875 -0.5625q0 -0.53125 -0.390625 -0.734375q-0.375 -0.21875 -1.28125 -0.21875l-1.265625 0l0 1.890625zm0 2.96875l1.515625 0q0.96875 0 1.328125 -0.21875q0.359375 -0.234375 0.375 -0.78125q0 -0.328125 -0.203125 -0.59375q-0.203125 -0.28125 -0.546875 -0.359375q-0.34375 -0.078125 -1.078125 -0.078125l-1.390625 0l0 2.03125zm5.9399414 -5.796875l5.328125 0l0 6.734375l-1.140625 0l0 -5.796875l-3.046875 0l0 5.796875l-1.140625 0l0 -6.734375zm7.2172394 9.3125l0 -9.3125l1.03125 0l0 0.875q0.375 -0.515625 0.828125 -0.765625q0.46875 -0.265625 1.140625 -0.265625q0.859375 0 1.515625 0.453125q0.65625 0.4375 0.984375 1.25q0.34375 0.796875 0.34375 1.765625q0 1.03125 -0.375 1.859375q-0.359375 0.828125 -1.078125 1.28125q-0.703125 0.4375 -1.484375 0.4375q-0.5625 0 -1.015625 -0.234375q-0.453125 -0.25 -0.75 -0.625l0 3.28125l-1.140625 0zm1.03125 -5.90625q0 1.296875 0.53125 1.921875q0.53125 0.625 1.265625 0.625q0.765625 0 1.3125 -0.640625q0.546875 -0.65625 0.546875 -2.0q0 -1.296875 -0.53125 -1.9375q-0.53125 -0.640625 -1.265625 -0.640625q-0.734375 0 -1.296875 0.6875q-0.5625 0.671875 -0.5625 1.984375zm11.678093 -3.40625l0 6.734375l-1.125 0l0 -2.625l-0.6562424 0q-0.609375 0 -0.90625 0.15625q-0.296875 0.15625 -0.859375 1.0l-1.0 1.46875l-1.40625 0l1.21875 -1.8125q0.578125 -0.828125 1.125 -0.9375q-0.96875 -0.140625 -1.453125 -0.703125q-0.46875 -0.578125 -0.46875 -1.328125q0 -0.875 0.609375 -1.40625q0.625 -0.546875 1.8125 -0.546875l3.1093674 0zm-1.125 0.9375l-1.6249924 0q-1.03125 0 -1.328125 0.328125q-0.28125 0.3125 -0.28125 0.734375q0 0.609375 0.421875 0.890625q0.4375 0.28125 1.546875 0.28125l1.2656174 0l0 -2.234375zm3.0453644 -0.9375l3.875 0l0 0.9375l-2.734375 0l0 5.796875l-1.140625 0l0 -6.734375zm9.252014 5.90625q-0.625 0.53125 -1.21875 0.765625q-0.578125 0.21875 -1.25 0.21875q-1.125 0 -1.71875 -0.546875q-0.59375 -0.546875 -0.59375 -1.390625q0 -0.484375 0.21875 -0.890625q0.234375 -0.421875 0.59375 -0.671875q0.375 -0.25 0.828125 -0.375q0.328125 -0.078125 1.015625 -0.171875q1.375 -0.15625 2.03125 -0.390625q0.015625 -0.234375 0.015625 -0.296875q0 -0.703125 -0.328125 -0.984375q-0.4375 -0.390625 -1.296875 -0.390625q-0.8125 0 -1.203125 0.28125q-0.375 0.28125 -0.5625 1.0l-1.109375 -0.140625q0.140625 -0.71875 0.484375 -1.15625q0.359375 -0.453125 1.015625 -0.6875q0.671875 -0.234375 1.53125 -0.234375q0.875 0 1.40625 0.203125q0.546875 0.203125 0.796875 0.515625q0.25 0.296875 0.359375 0.765625q0.046875 0.296875 0.046875 1.0625l0 1.515625q0 1.59375 0.078125 2.015625q0.078125 0.421875 0.28125 0.8125l-1.1875 0q-0.171875 -0.359375 -0.234375 -0.828125zm-0.09375 -2.5625q-0.625 0.265625 -1.859375 0.4375q-0.703125 0.109375 -1.0 0.234375q-0.296875 0.125 -0.453125 0.375q-0.15625 0.234375 -0.15625 0.53125q0 0.453125 0.34375 0.765625q0.34375 0.296875 1.015625 0.296875q0.65625 0 1.171875 -0.28125q0.515625 -0.296875 0.765625 -0.796875q0.171875 -0.375 0.171875 -1.140625l0 -0.421875zm3.1156006 -3.34375l1.140625 0l0 5.140625l3.171875 -5.140625l1.234375 0l0 6.734375l-1.15625 0l0 -5.109375l-3.15625 5.109375l-1.234375 0l0 -6.734375zm4.40625 -2.5625l0.78125 0q-0.09375 0.796875 -0.578125 1.21875q-0.484375 0.421875 -1.296875 0.421875q-0.8125 0 -1.296875 -0.421875q-0.484375 -0.421875 -0.578125 -1.21875l0.78125 0q0.078125 0.4375 0.34375 0.65625q0.265625 0.203125 0.71875 0.203125q0.5 0 0.765625 -0.203125q0.265625 -0.203125 0.359375 -0.65625zm8.22612 6.25l0 -0.890625q0.734375 -0.015625 0.984375 -0.0625q0.265625 -0.046875 0.5 -0.296875q0.234375 -0.265625 0.234375 -0.640625q0 -0.46875 -0.3125 -0.734375q-0.296875 -0.28125 -0.78125 -0.28125q-0.96875 0 -1.359375 1.140625l-1.078125 -0.1875q0.5 -1.890625 2.453125 -1.890625q1.078125 0 1.6875 0.59375q0.609375 0.578125 0.609375 1.40625q0 0.828125 -0.796875 1.3125q0.5 0.265625 0.75 0.6875q0.265625 0.421875 0.265625 1.0q0 0.90625 -0.671875 1.484375q-0.65625 0.5625 -1.84375 0.5625q-2.296875 0 -2.671875 -2.046875l1.078125 -0.234375q0.140625 0.640625 0.59375 1.0q0.453125 0.359375 1.03125 0.359375q0.578125 0 0.953125 -0.328125q0.390625 -0.328125 0.390625 -0.84375q0 -0.390625 -0.25 -0.671875q-0.234375 -0.296875 -0.515625 -0.359375q-0.265625 -0.078125 -0.984375 -0.078125q-0.0625 0 -0.265625 0zm9.017151 2.21875q-0.625 0.53125 -1.21875 0.765625q-0.578125 0.21875 -1.25 0.21875q-1.125 0 -1.71875 -0.546875q-0.59375 -0.546875 -0.59375 -1.390625q0 -0.484375 0.21875 -0.890625q0.234375 -0.421875 0.59375 -0.671875q0.375 -0.25 0.828125 -0.375q0.328125 -0.078125 1.015625 -0.171875q1.375 -0.15625 2.03125 -0.390625q0.015625 -0.234375 0.015625 -0.296875q0 -0.703125 -0.328125 -0.984375q-0.4375 -0.390625 -1.296875 -0.390625q-0.8125 0 -1.203125 0.28125q-0.375 0.28125 -0.5625 1.0l-1.109375 -0.140625q0.140625 -0.71875 0.484375 -1.15625q0.359375 -0.453125 1.015625 -0.6875q0.671875 -0.234375 1.53125 -0.234375q0.875 0 1.40625 0.203125q0.546875 0.203125 0.796875 0.515625q0.25 0.296875 0.359375 0.765625q0.046875 0.296875 0.046875 1.0625l0 1.515625q0 1.59375 0.078125 2.015625q0.078125 0.421875 0.28125 0.8125l-1.1875 0q-0.171875 -0.359375 -0.234375 -0.828125zm-0.09375 -2.5625q-0.625 0.265625 -1.859375 0.4375q-0.703125 0.109375 -1.0 0.234375q-0.296875 0.125 -0.453125 0.375q-0.15625 0.234375 -0.15625 0.53125q0 0.453125 0.34375 0.765625q0.34375 0.296875 1.015625 0.296875q0.65625 0 1.171875 -0.28125q0.515625 -0.296875 0.765625 -0.796875q0.171875 -0.375 0.171875 -1.140625l0 -0.421875zm6.1935883 -3.34375l5.484375 0l0 0.9375l-2.171875 0l0 5.796875l-1.140625 0l0 -5.796875l-2.171875 0l0 -0.9375zm6.3075104 3.359375q0 -1.875 1.03125 -2.765625q0.875 -0.75 2.125 -0.75q1.390625 0 2.265625 0.90625q0.890625 0.90625 0.890625 2.515625q0 1.296875 -0.390625 2.046875q-0.390625 0.75 -1.140625 1.171875q-0.75 0.40625 -1.625 0.40625q-1.421875 0 -2.296875 -0.90625q-0.859375 -0.90625 -0.859375 -2.625zm1.171875 0q0 1.296875 0.5625 1.953125q0.5625 0.640625 1.421875 0.640625q0.84375 0 1.40625 -0.640625q0.578125 -0.65625 0.578125 -1.984375q0 -1.25 -0.578125 -1.890625q-0.5625 -0.65625 -1.40625 -0.65625q-0.859375 0 -1.421875 0.640625q-0.5625 0.640625 -0.5625 1.9375zm6.6624756 -3.359375l2.640625 0q0.96875 0 1.4375 0.15625q0.484375 0.15625 0.8125 0.59375q0.34375 0.4375 0.34375 1.03125q0 0.484375 -0.203125 0.84375q-0.203125 0.359375 -0.59375 0.59375q0.46875 0.15625 0.78125 0.59375q0.328125 0.4375 0.328125 1.03125q-0.078125 0.96875 -0.703125 1.4375q-0.609375 0.453125 -1.796875 0.453125l-3.046875 0l0 -6.734375zm1.140625 2.828125l1.21875 0q0.734375 0 1.0 -0.078125q0.28125 -0.078125 0.5 -0.296875q0.21875 -0.234375 0.21875 -0.5625q0 -0.53125 -0.390625 -0.734375q-0.375 -0.21875 -1.28125 -0.21875l-1.265625 0l0 1.890625zm0 2.96875l1.515625 0q0.96875 0 1.328125 -0.21875q0.359375 -0.234375 0.375 -0.78125q0 -0.328125 -0.203125 -0.59375q-0.203125 -0.28125 -0.546875 -0.359375q-0.34375 -0.078125 -1.078125 -0.078125l-1.390625 0l0 2.03125zm10.330566 0.109375q-0.625 0.53125 -1.21875 0.765625q-0.578125 0.21875 -1.25 0.21875q-1.125 0 -1.71875 -0.546875q-0.59375 -0.546875 -0.59375 -1.390625q0 -0.484375 0.21875 -0.890625q0.234375 -0.421875 0.59375 -0.671875q0.375 -0.25 0.828125 -0.375q0.328125 -0.078125 1.015625 -0.171875q1.375 -0.15625 2.03125 -0.390625q0.015625 -0.234375 0.015625 -0.296875q0 -0.703125 -0.328125 -0.984375q-0.4375 -0.390625 -1.296875 -0.390625q-0.8125 0 -1.203125 0.28125q-0.375 0.28125 -0.5625 1.0l-1.109375 -0.140625q0.140625 -0.71875 0.484375 -1.15625q0.359375 -0.453125 1.015625 -0.6875q0.671875 -0.234375 1.53125 -0.234375q0.875 0 1.40625 0.203125q0.546875 0.203125 0.796875 0.515625q0.25 0.296875 0.359375 0.765625q0.046875 0.296875 0.046875 1.0625l0 1.515625q0 1.59375 0.078125 2.015625q0.078125 0.421875 0.28125 0.8125l-1.1875 0q-0.171875 -0.359375 -0.234375 -0.828125zm-0.09375 -2.5625q-0.625 0.265625 -1.859375 0.4375q-0.703125 0.109375 -1.0 0.234375q-0.296875 0.125 -0.453125 0.375q-0.15625 0.234375 -0.15625 0.53125q0 0.453125 0.34375 0.765625q0.34375 0.296875 1.015625 0.296875q0.65625 0 1.171875 -0.28125q0.515625 -0.296875 0.765625 -0.796875q0.171875 -0.375 0.171875 -1.140625l0 -0.421875zm3.8656006 6.125l-0.828125 0q1.90625 -3.046875 1.90625 -6.09375q0 -1.203125 -0.28125 -2.375q-0.203125 -0.953125 -0.59375 -1.828125q-0.25 -0.5625 -1.03125 -1.90625l0.828125 0q1.1875 1.59375 1.765625 3.203125q0.484375 1.390625 0.484375 2.890625q0 1.71875 -0.65625 3.328125q-0.65625 1.59375 -1.59375 2.78125z" fill-rule="nonzero"></path></g></svg>

